<?xml version="1.0" encoding="UTF-8"?>
<svg width="15" height="15" viewBox="0 0 15 15" xmlns="http://www.w3.org/2000/svg" id="newspaper">
  <path d="M8 12L12 12L12 12.54L8 12.56L8 12ZM8 11L12 11L12 11.54L8 11.56L8 11ZM8 7L12 7L12 10L8 10L8 7ZM3 7L7 7.02L7 7.56L3 7.56L3 7ZM3 12L7 12L7 12.54L3 12.56L3 12ZM3 11L7 11L7 11.54L3 11.56L3 11ZM3 10L7 10.02L7 10.56L3 10.56L3 10ZM3 9L7 9.02L7 9.56L3 9.56L3 9ZM3 8L7 8L7 8.54L3 8.56L3 8ZM3 3L3 5.51L12 5.56L12 3L3 3ZM1 1C1 2.56 1 9.94 1 12C1 14 1 11 1 14L11 14L14 14L14 1L1 1ZM2 2L13 2L13 13L4 13C2.59 13 4 13 2 13L2 2Z"/>
</svg>
