<?xml version="1.0" encoding="UTF-8"?>
<svg version="1.1" id="road-7" width="450" height="140" viewBox="0 0 119.0625 37.041674" xmlns="http://www.w3.org/2000/svg">
<path d="M 5.45933,2.645832 H 113.6031 c 1.57993,0 2.81353,1.223772 2.81353,2.791182 v 26.167635 c 0,1.56741 -1.2336,2.791182 -2.81353,2.791182 H 5.45933 c -1.57993,0 -2.81353,-1.223772 -2.81353,-2.791182 V 5.437014 c 0,-1.56741 1.2336,-2.791182 2.81353,-2.791182 z"/>
<path d="m 5.29271,-1e-6 c -2.9101,0 -5.2927,2.38037 -5.2927,5.29064 v 26.45988 c 0,2.91027 2.3826,5.29115 5.2927,5.29115 h 108.4771 c 2.9101,0 5.2927,-2.38088 5.2927,-5.29115 V 5.290639 c 0,-2.91027 -2.3826,-5.29064 -5.2927,-5.29064 z m 0,2.46859 h 108.4771 c 1.5848,0 2.822,1.23716 2.822,2.82205 v 26.45988 c 0,1.58489 -1.2372,2.82205 -2.822,2.82205 H 5.29271 c -1.5848,0 -2.8221,-1.23716 -2.8221,-2.82205 V 5.290639 c 0,-1.58489 1.2373,-2.82205 2.8221,-2.82205 z"/>
<metadata id="license" xmlns:rdf="http://www.w3.org/1999/02/22-rdf-syntax-ns#" xmlns:cc="http://creativecommons.org/ns#"><cc:Work><cc:license rdf:resource="https://creativecommons.org/publicdomain/zero/1.0/"/></cc:Work></metadata>
</svg>