<?xml version="1.0" encoding="UTF-8"?>
<svg version="1.1" id="road-1" width="140" height="140" viewBox="0 0 37.041661 37.041661" xmlns="http://www.w3.org/2000/svg">
<path d="M 5.4371927,2.6458332 H 31.604473 c 1.567508,0 2.791359,1.2237822 2.791359,2.7911922 V 31.604651 c 0,1.567409 -1.223851,2.791181 -2.791359,2.791181 H 5.4371927 c -1.5675082,0 -2.7913595,-1.223772 -2.7913595,-2.791181 V 5.4370254 c 0,-1.56741 1.2238513,-2.7911922 2.7913595,-2.7911922 z"/>
<path d="M 5.2927,0 C 2.38258,0 0,2.38088 0,5.29115 v 26.45936 c 0,2.91027 2.38258,5.29115 5.2927,5.29115 h 26.45626 c 2.91012,0 5.2927,-2.38088 5.2927,-5.29115 V 5.29115 C 37.04166,2.38088 34.65908,0 31.74896,0 Z m 0,2.4691 h 26.45626 c 1.58481,0 2.82205,1.23716 2.82205,2.82205 v 26.45936 c 0,1.58489 -1.23724,2.82257 -2.82205,2.82257 H 5.2927 c -1.58481,0 -2.82205,-1.23768 -2.82205,-2.82257 V 5.29115 c 0,-1.58489 1.23724,-2.82205 2.82205,-2.82205 z"/>
<metadata id="license" xmlns:rdf="http://www.w3.org/1999/02/22-rdf-syntax-ns#" xmlns:cc="http://creativecommons.org/ns#"><cc:Work><cc:license rdf:resource="https://creativecommons.org/publicdomain/zero/1.0/"/></cc:Work></metadata>
</svg>