<?xml version="1.0" encoding="UTF-8"?>
<svg version="1.1" id="road-6" width="400" height="140" viewBox="0 0 105.83339 37.041674" xmlns="http://www.w3.org/2000/svg">
<path d="M 5.458133,2.645832 H 100.3751 c 1.57929,0 2.81239,1.223773 2.81239,2.791183 v 26.167633 c 0,1.56741 -1.2331,2.791183 -2.81239,2.791183 H 5.458133 c -1.579296,0 -2.812298,-1.223773 -2.812298,-2.791183 V 5.437015 c 0,-1.56741 1.233002,-2.791183 2.812298,-2.791183 z"/>
<path d="m 5.292704,-1e-6 c -2.9101,0 -5.2927,2.38037 -5.2927,5.29064 v 26.45988 c 0,2.91027 2.3826,5.29115 5.2927,5.29115 H 100.5407 c 2.9101,0 5.2927,-2.38088 5.2927,-5.29115 V 5.290639 c 0,-2.91027 -2.3826,-5.29064 -5.2927,-5.29064 z m 0,2.46859 H 100.5407 c 1.5848,0 2.822,1.23716 2.822,2.82205 v 26.45988 c 0,1.58489 -1.2372,2.82205 -2.822,2.82205 H 5.292704 c -1.5848,0 -2.822,-1.23716 -2.822,-2.82205 V 5.290639 c 0,-1.58489 1.2372,-2.82205 2.822,-2.82205 z"/>
<metadata id="license" xmlns:rdf="http://www.w3.org/1999/02/22-rdf-syntax-ns#" xmlns:cc="http://creativecommons.org/ns#"><cc:Work><cc:license rdf:resource="https://creativecommons.org/publicdomain/zero/1.0/"/></cc:Work></metadata>
</svg>