<?xml version="1.0" encoding="UTF-8"?>
<svg version="1.1" id="artwork" width="150" height="150" viewBox="0 0 39.6875 39.6875" xmlns="http://www.w3.org/2000/svg">
<path d="M 3.96875 0 L 3.96875 39.6875 L 35.71875 39.6875 L 35.71875 0 L 3.96875 0 z M 7.9375 3.96875 L 31.75 3.96875 L 31.75 35.71875 L 7.9375 35.71875 L 7.9375 3.96875 z M 9.2604167 5.2916667 L 9.2604167 17.197917 L 15.875 5.2916667 L 9.2604167 5.2916667 z M 22.488033 7.9375 A 5.2916665 7.2760415 0 0 0 17.197917 15.215092 A 5.2916665 7.2760415 0 0 0 22.4901 22.489583 A 5.2916665 7.2760415 0 0 0 27.78125 15.213542 L 27.78125 15.210441 A 5.2916665 7.2760415 0 0 0 22.488033 7.9375 z M 14.552083 23.8125 L 9.2604167 34.395833 L 30.427083 34.395833 L 30.427083 23.8125 L 14.552083 23.8125 z "/>
<metadata id="license" xmlns:rdf="http://www.w3.org/1999/02/22-rdf-syntax-ns#" xmlns:cc="http://creativecommons.org/ns#"><cc:Work><cc:license rdf:resource="https://creativecommons.org/publicdomain/zero/1.0/"/></cc:Work></metadata>
</svg>