<?xml version="1.0" encoding="UTF-8"?>
<svg version="1.1" id="vendingmachine" width="150" height="150" viewBox="0 0 39.6875 39.6875" xmlns="http://www.w3.org/2000/svg">
<path d="M 10.583333 1.984375 C 9.1175463 1.984375 7.9375 3.1644209 7.9375 4.6302083 L 7.9375 35.057292 C 7.9375 36.523079 9.1175463 37.703125 10.583333 37.703125 L 29.104167 37.703125 C 30.569953 37.703125 31.75 36.523079 31.75 35.057292 L 31.75 4.6302083 C 31.75 3.1644209 30.569953 1.984375 29.104167 1.984375 L 10.583333 1.984375 z M 11.90625 3.3072917 L 23.8125 3.3072917 C 25.278287 3.3072917 26.458333 4.4873393 26.458333 5.953125 L 26.458333 28.442708 C 26.458333 29.908493 25.278287 31.088542 23.8125 31.088542 L 11.90625 31.088542 C 10.440464 31.088542 9.2604167 29.908493 9.2604167 28.442708 L 9.2604167 5.953125 C 9.2604167 4.4873393 10.440464 3.3072917 11.90625 3.3072917 z M 11.90625 5.953125 C 11.173357 5.953125 10.583333 6.543148 10.583333 7.2760417 L 10.583333 8.5989583 C 10.583333 9.3318518 11.173357 9.921875 11.90625 9.921875 C 12.639143 9.921875 13.229167 9.3318518 13.229167 8.5989583 L 13.229167 7.2760417 C 13.229167 6.543148 12.639143 5.953125 11.90625 5.953125 z M 15.875 5.953125 C 15.142107 5.953125 14.552083 6.543148 14.552083 7.2760417 L 14.552083 8.5989583 C 14.552083 9.3318518 15.142107 9.921875 15.875 9.921875 C 16.607893 9.921875 17.197917 9.3318518 17.197917 8.5989583 L 17.197917 7.2760417 C 17.197917 6.543148 16.607893 5.953125 15.875 5.953125 z M 19.84375 5.953125 C 19.110857 5.953125 18.520833 6.543148 18.520833 7.2760417 L 18.520833 8.5989583 C 18.520833 9.3318518 19.110857 9.921875 19.84375 9.921875 C 20.576643 9.921875 21.166667 9.3318518 21.166667 8.5989583 L 21.166667 7.2760417 C 21.166667 6.543148 20.576643 5.953125 19.84375 5.953125 z M 23.8125 5.953125 C 23.079607 5.953125 22.489583 6.543148 22.489583 7.2760417 L 22.489583 8.5989583 C 22.489583 9.3318518 23.079607 9.921875 23.8125 9.921875 C 24.545393 9.921875 25.135417 9.3318518 25.135417 8.5989583 L 25.135417 7.2760417 C 25.135417 6.543148 24.545393 5.953125 23.8125 5.953125 z M 29.104167 9.921875 C 29.837059 9.921875 30.427083 10.511899 30.427083 11.244792 L 30.427083 13.890625 C 30.427083 14.623519 29.837059 15.213542 29.104167 15.213542 C 28.371272 15.213542 27.78125 14.623519 27.78125 13.890625 L 27.78125 11.244792 C 27.78125 10.511899 28.371272 9.921875 29.104167 9.921875 z M 11.90625 11.244792 C 11.173357 11.244792 10.583333 11.834814 10.583333 12.567708 L 10.583333 13.890625 C 10.583333 14.623519 11.173357 15.213542 11.90625 15.213542 C 12.639143 15.213542 13.229167 14.623519 13.229167 13.890625 L 13.229167 12.567708 C 13.229167 11.834814 12.639143 11.244792 11.90625 11.244792 z M 15.875 11.244792 C 15.142107 11.244792 14.552083 11.834814 14.552083 12.567708 L 14.552083 13.890625 C 14.552083 14.623519 15.142107 15.213542 15.875 15.213542 C 16.607893 15.213542 17.197917 14.623519 17.197917 13.890625 L 17.197917 12.567708 C 17.197917 11.834814 16.607893 11.244792 15.875 11.244792 z M 19.84375 11.244792 C 19.110857 11.244792 18.520833 11.834814 18.520833 12.567708 L 18.520833 13.890625 C 18.520833 14.623519 19.110857 15.213542 19.84375 15.213542 C 20.576643 15.213542 21.166667 14.623519 21.166667 13.890625 L 21.166667 12.567708 C 21.166667 11.834814 20.576643 11.244792 19.84375 11.244792 z M 23.8125 11.244792 C 23.079607 11.244792 22.489583 11.834814 22.489583 12.567708 L 22.489583 13.890625 C 22.489583 14.623519 23.079607 15.213542 23.8125 15.213542 C 24.545393 15.213542 25.135417 14.623519 25.135417 13.890625 L 25.135417 12.567708 C 25.135417 11.834814 24.545393 11.244792 23.8125 11.244792 z M 11.90625 16.536458 C 11.173357 16.536458 10.583333 17.126482 10.583333 17.859375 L 10.583333 19.182292 C 10.583333 19.915185 11.173357 20.505208 11.90625 20.505208 C 12.639143 20.505208 13.229167 19.915185 13.229167 19.182292 L 13.229167 17.859375 C 13.229167 17.126482 12.639143 16.536458 11.90625 16.536458 z M 19.84375 16.536458 C 19.110857 16.536458 18.520833 17.126482 18.520833 17.859375 L 18.520833 19.182292 C 18.520833 19.915185 19.110857 20.505208 19.84375 20.505208 C 20.576643 20.505208 21.166667 19.915185 21.166667 19.182292 L 21.166667 17.859375 C 21.166667 17.126482 20.576643 16.536458 19.84375 16.536458 z M 23.8125 16.536458 C 23.079607 16.536458 22.489583 17.126482 22.489583 17.859375 L 22.489583 19.182292 C 22.489583 19.915185 23.079607 20.505208 23.8125 20.505208 C 24.545393 20.505208 25.135417 19.915185 25.135417 19.182292 L 25.135417 17.859375 C 25.135417 17.126482 24.545393 16.536458 23.8125 16.536458 z M 29.104167 16.536458 C 29.837059 16.536458 30.427083 17.126483 30.427083 17.859375 L 30.427083 19.182292 C 30.427083 19.915184 29.837059 20.505208 29.104167 20.505208 C 28.371272 20.505208 27.78125 19.915184 27.78125 19.182292 L 27.78125 17.859375 C 27.78125 17.126483 28.371272 16.536458 29.104167 16.536458 z M 11.90625 21.828125 C 11.173357 21.828125 10.583333 22.418148 10.583333 23.151042 L 10.583333 24.473958 C 10.583333 25.206852 11.173357 25.796875 11.90625 25.796875 C 12.639143 25.796875 13.229167 25.206852 13.229167 24.473958 L 13.229167 23.151042 C 13.229167 22.418148 12.639143 21.828125 11.90625 21.828125 z M 15.875 21.828125 C 15.142107 21.828125 14.552083 22.418148 14.552083 23.151042 L 14.552083 24.473958 C 14.552083 25.206852 15.142107 25.796875 15.875 25.796875 C 16.607893 25.796875 17.197917 25.206852 17.197917 24.473958 L 17.197917 23.151042 C 17.197917 22.418148 16.607893 21.828125 15.875 21.828125 z M 19.84375 21.828125 C 19.110857 21.828125 18.520833 22.418148 18.520833 23.151042 L 18.520833 24.473958 C 18.520833 25.206852 19.110857 25.796875 19.84375 25.796875 C 20.576643 25.796875 21.166667 25.206852 21.166667 24.473958 L 21.166667 23.151042 C 21.166667 22.418148 20.576643 21.828125 19.84375 21.828125 z M 11.244792 32.411458 L 24.473958 32.411458 C 25.573298 32.411458 26.458333 33.296493 26.458333 34.395833 C 26.458333 35.495172 25.573298 36.380208 24.473958 36.380208 L 11.244792 36.380208 C 10.145452 36.380208 9.2604167 35.495172 9.2604167 34.395833 C 9.2604167 33.296493 10.145452 32.411458 11.244792 32.411458 z M 11.377083 32.808333 C 10.497609 32.808333 9.7895833 33.516359 9.7895833 34.395833 C 9.7895833 35.275307 10.497609 35.983333 11.377083 35.983333 L 24.341667 35.983333 C 25.221141 35.983333 25.929167 35.275307 25.929167 34.395833 C 25.929167 33.516359 25.221141 32.808333 24.341667 32.808333 L 11.377083 32.808333 z "/>
<metadata id="license" xmlns:rdf="http://www.w3.org/1999/02/22-rdf-syntax-ns#" xmlns:cc="http://creativecommons.org/ns#"><cc:Work><cc:license rdf:resource="https://creativecommons.org/publicdomain/zero/1.0/"/></cc:Work></metadata>
</svg>