<?xml version="1.0" encoding="UTF-8"?>
<svg version="1.1" id="arrow_circle" width="24" height="24" viewBox="0 0 24 24" xmlns="http://www.w3.org/2000/svg">
<path fill-rule="evenodd" d="M 12 -1.1992188 C 6.0495395 -1.1992188 1.1992188 3.6491444 1.1992188 9.5996094 L 1.1992188 12 A 1.20012 1.20012 0 0 0 1.2089844 12.148438 C 1.9521621 18.093893 7.4041572 22.333025 13.349609 21.589844 C 19.270077 20.849785 23.48357 15.439696 22.785156 9.5234375 C 22.741409 3.6100073 17.923451 -1.1992187 12 -1.1992188 z M 12 1.1992188 C 16.653406 1.1992188 20.400391 4.9461999 20.400391 9.5996094 A 1.20012 1.20012 0 0 0 20.410156 9.7480469 C 20.992423 14.406464 17.709196 18.626683 13.050781 19.208984 C 8.4030337 19.789953 4.1971811 16.522308 3.5996094 11.880859 L 3.5996094 9.5996094 C 3.5996094 4.9461999 7.3465935 1.1992188 12 1.1992188 z M 12.398438 7.5996094 A 1.2 1.2 0 0 0 11.550781 7.9511719 A 1.2 1.2 0 0 0 11.550781 9.6484375 L 12.703125 10.800781 L 7.5996094 10.800781 A 1.2 1.2 0 0 0 6.4003906 12 A 1.2 1.2 0 0 0 7.5996094 13.199219 L 12.703125 13.199219 L 11.550781 14.351562 A 1.2 1.2 0 0 0 11.550781 16.048828 A 1.2 1.2 0 0 0 13.248047 16.048828 L 16.4375 12.859375 A 1.2 1.2 0 0 0 16.449219 12.847656 A 1.20012 1.20012 0 0 0 16.542969 12.742188 A 1.2 1.2 0 0 0 16.544922 12.738281 A 1.20012 1.20012 0 0 0 16.583984 12.681641 A 1.2 1.2 0 0 0 16.638672 12.599609 A 1.20012 1.20012 0 0 0 16.705078 12.466797 A 1.2 1.2 0 0 0 16.708984 12.458984 A 1.20012 1.20012 0 0 0 16.757812 12.316406 A 1.2 1.2 0 0 0 16.759766 12.310547 A 1.20012 1.20012 0 0 0 16.765625 12.279297 A 1.2 1.2 0 0 0 16.800781 12 A 1.2 1.2 0 0 0 16.765625 11.720703 A 1.2 1.2 0 0 0 16.759766 11.689453 A 1.20012 1.20012 0 0 0 16.757812 11.683594 A 1.2 1.2 0 0 0 16.708984 11.541016 A 1.20012 1.20012 0 0 0 16.705078 11.533203 A 1.2 1.2 0 0 0 16.638672 11.400391 A 1.2 1.2 0 0 0 16.583984 11.318359 A 1.20012 1.20012 0 0 0 16.544922 11.261719 A 1.20012 1.20012 0 0 0 16.542969 11.257812 A 1.2 1.2 0 0 0 16.449219 11.152344 L 16.4375 11.140625 L 13.248047 7.9511719 A 1.2 1.2 0 0 0 12.398438 7.5996094 z"/>
<metadata id="license" xmlns:rdf="http://www.w3.org/1999/02/22-rdf-syntax-ns#" xmlns:cc="http://creativecommons.org/ns#"><cc:Work><cc:license rdf:resource="https://creativecommons.org/publicdomain/zero/1.0/"/></cc:Work></metadata>
</svg>
