<?xml version="1.0" encoding="UTF-8"?>
<svg version="1.1" id="road-3" width="250" height="140" viewBox="0 0 66.145835 37.041661" xmlns="http://www.w3.org/2000/svg">
<path d="m 5.451848,2.6458332 h 55.242138 c 1.575736,0 2.806016,1.2237715 2.806016,2.7911905 V 31.604652 c 0,1.567409 -1.23028,2.79118 -2.806016,2.79118 H 5.451848 c -1.575736,0 -2.806011,-1.223771 -2.806011,-2.79118 V 5.4370237 c 0,-1.567419 1.230275,-2.7911905 2.806011,-2.7911905 z"/>
<path d="M 5.292702,0 C 2.382582,0 2e-6,2.38087 2e-6,5.29115 v 26.45936 c 0,2.91027 2.38258,5.29115 5.2927,5.29115 h 55.56043 c 2.91012,0 5.2927,-2.38088 5.2927,-5.29115 V 5.29115 C 66.145832,2.38087 63.763252,0 60.853132,0 Z m 0,2.4691 h 55.56043 c 1.58481,0 2.82205,1.23715 2.82205,2.82205 v 26.45936 c 0,1.58489 -1.23724,2.82257 -2.82205,2.82257 H 5.292702 c -1.58481,0 -2.82205,-1.23768 -2.82205,-2.82257 V 5.29115 c 0,-1.5849 1.23724,-2.82205 2.82205,-2.82205 z"/>
<metadata id="license" xmlns:rdf="http://www.w3.org/1999/02/22-rdf-syntax-ns#" xmlns:cc="http://creativecommons.org/ns#"><cc:Work><cc:license rdf:resource="https://creativecommons.org/publicdomain/zero/1.0/"/></cc:Work></metadata>
</svg>