<?xml version="1.0" encoding="UTF-8"?>
<svg version="1.1" id="road-4" width="310" height="140" viewBox="0 0 82.02079 37.041661" xmlns="http://www.w3.org/2000/svg">
<path d="m 5.45513,2.6458332 h 71.11042 c 1.5776,0 2.80937,1.2237719 2.80937,2.7911913 V 31.604651 c 0,1.567409 -1.23177,2.791181 -2.80937,2.791181 H 5.45513 c -1.5776,0 -2.80937,-1.223772 -2.80937,-2.791181 V 5.4370245 c 0,-1.5674194 1.23177,-2.7911913 2.80937,-2.7911913 z"/>
<path d="M 5.2927,0 C 2.3825,0 0,2.38087 0,5.29115 v 26.45988 c 0,2.91027 2.3825,5.29063 5.2927,5.29063 h 71.4354 c 2.9101,0 5.2927,-2.38036 5.2927,-5.29063 V 5.29115 C 82.0208,2.38087 79.6382,0 76.7281,0 Z m 0,2.4691 h 71.4354 c 1.5848,0 2.822,1.23715 2.822,2.82205 v 26.45988 c 0,1.58489 -1.2372,2.82205 -2.822,2.82205 H 5.2927 c -1.5848,0 -2.8221,-1.23716 -2.8221,-2.82205 V 5.29115 c 0,-1.5849 1.2373,-2.82205 2.8221,-2.82205 z"/>
<metadata id="license" xmlns:rdf="http://www.w3.org/1999/02/22-rdf-syntax-ns#" xmlns:cc="http://creativecommons.org/ns#"><cc:Work><cc:license rdf:resource="https://creativecommons.org/publicdomain/zero/1.0/"/></cc:Work></metadata>
</svg>