<?xml version="1.0" encoding="UTF-8"?>
<svg version="1.1" id="road-5" width="360" height="140" viewBox="0 0 95.250013 37.042178" xmlns="http://www.w3.org/2000/svg">
<path d="M 5.4564077,2.6458332 H 89.793602 c 1.578672,0 2.811189,1.2237884 2.811189,2.7912291 V 31.605053 c 0,1.567431 -1.232517,2.791218 -2.811189,2.791218 H 5.4564077 c -1.5786718,0 -2.8111888,-1.223787 -2.8111888,-2.791218 V 5.4370623 c 0,-1.5674407 1.232517,-2.7912291 2.8111888,-2.7912291 z"/>
<path d="M 5.2929159,0 C 2.3827757,0 1.4283239e-4,2.38087 1.4283239e-4,5.29115 v 26.45988 c 0,2.91027 2.38263286761,5.29115 5.29277306761,5.29115 H 89.958685 c 2.91014,0 5.292773,-2.38088 5.292773,-5.29115 V 5.29115 C 95.251458,2.38087 92.868825,0 89.958685,0 Z m 0,2.4691 H 89.958685 c 1.584822,0 2.822139,1.23715 2.822139,2.82205 v 26.45988 c 0,1.58489 -1.237317,2.82205 -2.822139,2.82205 H 5.2929159 c -1.5848219,0 -2.822039,-1.23716 -2.822039,-2.82205 V 5.29115 c 0,-1.5849 1.2372171,-2.82205 2.822039,-2.82205 z"/>
<metadata id="license" xmlns:rdf="http://www.w3.org/1999/02/22-rdf-syntax-ns#" xmlns:cc="http://creativecommons.org/ns#"><cc:Work><cc:license rdf:resource="https://creativecommons.org/publicdomain/zero/1.0/"/></cc:Work></metadata>
</svg>