<?xml version="1.0" encoding="UTF-8"?>
<svg version="1.1" id="information" width="110" height="110" viewBox="0 0 29.104165 29.104165" xmlns="http://www.w3.org/2000/svg">
<path d="m 14.552032,2.6458325 c -6.5614994,0 -11.9061994,5.34473 -11.9061994,11.9062505 0,6.56151 5.3447,11.90625 11.9061994,11.90625 6.5615,0 11.9063,-5.34474 11.9063,-11.90625 0,-6.5615205 -5.3448,-11.9062505 -11.9063,-11.9062505 z m 0,2.38073 c 5.2746,0 9.5235,4.25092 9.5235,9.5255205 0,5.27459 -4.2489,9.52345 -9.5235,9.52345 -5.2745994,0 -9.5254994,-4.24886 -9.5254994,-9.52345 0,-5.2746005 4.2509,-9.5255205 9.5254994,-9.5255205 z m 0,2.91093 a 2.6458333,2.6458333 0 0 0 -2.645799,2.6458405 2.6458333,2.6458333 0 0 0 2.645799,2.64583 2.6458333,2.6458333 0 0 0 2.6458,-2.64583 2.6458333,2.6458333 0 0 0 -2.6458,-2.6458405 z m -3.968699,6.6145905 v 1.32291 h 1.3229 v 5.29167 h 5.291599 v -6.61458 z"/>
<metadata id="license" xmlns:rdf="http://www.w3.org/1999/02/22-rdf-syntax-ns#" xmlns:cc="http://creativecommons.org/ns#"><cc:Work><cc:license rdf:resource="https://creativecommons.org/publicdomain/zero/1.0/"/></cc:Work></metadata>
</svg>