<?xml version="1.0" encoding="UTF-8"?>
<svg version="1.1" id="lightrail" width="110" height="110" viewBox="0 0 29.104165 29.104165" xmlns="http://www.w3.org/2000/svg">
<path d="m 13.229166,2.6458332 c -7.9374919,0 -10.5833338,2.64584 -10.5833338,10.5833328 v 2.645833 c 0,7.937492 2.6458419,10.583333 10.5833338,10.583333 h 2.645832 c 7.937492,0 10.583333,-2.645841 10.583333,-10.583333 v -2.645833 c 0,-7.9374928 -2.645841,-10.5833328 -10.583333,-10.5833328 z m 0,2.6458332 h 2.645832 c 2.645897,0 7.9375,2e-6 7.9375,5.2916666 h -2.645834 c 0,-2.6458272 -2.645832,-2.6458335 -2.645832,-2.6458335 h -5.291666 c 0,0 -2.645834,6.3e-6 -2.645834,2.6458335 0,2.645828 2.645834,2.645833 2.645834,2.645833 h 2.645832 c 2.811197,1e-5 7.9375,2e-6 7.9375,5.291666 0,5.291665 -5.291603,5.291667 -7.9375,5.291667 h -2.645832 c -2.645798,0 -7.9375009,0.102808 -7.9375009,-5.291667 h 2.6458335 c 0,2.645828 2.6458334,2.645833 2.6458334,2.645833 h 5.34696 c -0.055,0 2.59054,-5e-6 2.59054,-2.645833 0,-2.645827 -2.645834,-2.645833 -2.645834,-2.645833 h -2.645832 c -2.645798,-1e-5 -7.9375009,-1e-6 -7.9375009,-5.291666 0,-5.2916646 5.2917029,-5.2916666 7.9375009,-5.2916666 z"/>
<path d="m 13.229132,5.2916624 h 2.6458 c 2.6459,0 7.9375,0 7.9375,5.2916696 h -2.6458 c 0,-2.6458296 -2.6458,-2.6458296 -2.6458,-2.6458296 h -5.2917 c 0,0 -2.6458,0 -2.6458,2.6458296 0,2.645831 2.6458,2.645831 2.6458,2.645831 h 2.6458 c 2.8112,10e-6 7.9375,0 7.9375,5.29167 0,5.29167 -5.2916,5.29167 -7.9375,5.29167 h -2.6458 c -2.6458,0 -7.9374995,0.10281 -7.9374995,-5.29167 h 2.6458 c 0,2.64583 2.6458995,2.64583 2.6458995,2.64583 h 5.3469 c -0.055,0 2.5906,0 2.5906,-2.64583 0,-2.64583 -2.6459,-2.64583 -2.6459,-2.64583 h -2.6458 c -2.6458,-10e-6 -7.9374995,0 -7.9374995,-5.291671 0,-5.2916696 5.2916995,-5.2916696 7.9374995,-5.2916696 z"/>
<metadata id="license" xmlns:rdf="http://www.w3.org/1999/02/22-rdf-syntax-ns#" xmlns:cc="http://creativecommons.org/ns#"><cc:Work><cc:license rdf:resource="https://creativecommons.org/publicdomain/zero/1.0/"/></cc:Work></metadata>
</svg>