<?xml version="1.0" encoding="UTF-8"?>
<svg version="1.1" id="parking" width="110" height="110" viewBox="0 0 29.104165 29.104165" xmlns="http://www.w3.org/2000/svg">
<path d="M 2.6458322,2.6458332 V 26.458332 H 26.458331 V 2.6458332 Z m 5.2916664,2.6458332 h 2.6458334 2.645834 2.645832 c 2.645795,0 5.291666,2.6458418 5.291666,5.2916666 v 2.645833 c 0,2.645834 -2.645871,5.291666 -5.291666,5.291666 h -2.645832 v 5.291667 H 7.9374986 Z m 5.2916674,5.2916666 v 2.645833 h 1.852083 c 1.322897,0 1.322897,-2.645833 0,-2.645833 z"/>
<path d="M 7.9374996,5.2916664 V 23.812499 h 5.2916664 v -5.291667 h 2.645833 c 2.645797,0 5.291666,-2.645829 5.291666,-5.291666 v -2.645833 c 0,-2.6458272 -2.645869,-5.2916666 -5.291666,-5.2916666 h -2.645833 -2.645833 z m 5.2916664,5.2916666 h 1.852083 c 1.322899,0 1.322899,2.645833 0,2.645833 h -1.852083 z"/>
<metadata id="license" xmlns:rdf="http://www.w3.org/1999/02/22-rdf-syntax-ns#" xmlns:cc="http://creativecommons.org/ns#"><cc:Work><cc:license rdf:resource="https://creativecommons.org/publicdomain/zero/1.0/"/></cc:Work></metadata>
</svg>