<?xml version="1.0" encoding="UTF-8"?>
<svg version="1.1" id="suitcase" width="110" height="110" viewBox="0 0 29.104165 29.104165" xmlns="http://www.w3.org/2000/svg">
<path d="m 10.583333,2.6458332 c 0,0 -2.6459005,0 -2.6459005,2.6458301 v 2.6458395 h -2.6458 c -2.6458,0 -2.6458,0 -2.6458,2.6458312 v 10.583329 c 0,2.64583 0,2.64584 2.6458,2.64584 H 23.812433 c 2.6459,0 2.6459,-10e-6 2.6459,-2.64584 V 10.583334 c 0,-2.6458312 0,-2.6458312 -2.6459,-2.6458312 h -2.6458 V 5.2916633 c 0,-2.6458301 -2.6458,-2.6458301 -2.6458,-2.6458301 z m 2.6458,2.6458301 h 2.6458 c 2.6459,0 2.6459,0 2.6459,2.6458395 h -7.9375 c 0,-2.6458395 0,-2.6458395 2.6458,-2.6458395 z"/>
<metadata id="license" xmlns:rdf="http://www.w3.org/1999/02/22-rdf-syntax-ns#" xmlns:cc="http://creativecommons.org/ns#"><cc:Work><cc:license rdf:resource="https://creativecommons.org/publicdomain/zero/1.0/"/></cc:Work></metadata>
</svg>