<?xml version="1.0" encoding="UTF-8"?>
<svg version="1.1" id="train" width="110" height="110" viewBox="0 0 29.104165 29.104165" xmlns="http://www.w3.org/2000/svg">
<path d="m 7.9374322,2.6458332 c -2.6458,0 -2.6458,7.9375298 -2.6458,10.5833298 v 5.29167 c 0,2.64584 2.6458,2.64583 2.6458,2.64583 l -5.2915999,7.9375 h 5.2915999 l 0.8821,-2.64583 H 20.284533 l 0.8821,2.64583 h 5.2917 l -5.2917,-7.9375 c 0,0 2.6458,10e-6 2.6458,-2.64583 v -5.29167 c 0,-2.6458 0,-10.5833298 -2.6458,-10.5833298 z m 2.6458998,2.64583 h 7.937501 c 2.6458,0 2.6458,2.64584 2.6458,5.2916698 v 2.64583 H 7.9374322 v -2.64583 c 0,-2.6458298 0,-5.2916698 2.6458998,-5.2916698 z M 9.2603322,15.875003 a 1.3229151,1.3229166 0 0 1 1.3229998,1.32291 1.3229151,1.3229166 0 0 1 -1.3229998,1.32292 1.3229151,1.3229166 0 0 1 -1.3229,-1.32292 1.3229151,1.3229166 0 0 1 1.3229,-1.32291 z m 10.5834008,0 a 1.3229151,1.3229166 0 0 1 1.3229,1.32291 1.3229151,1.3229166 0 0 1 -1.3229,1.32292 1.3229151,1.3229166 0 0 1 -1.3229,-1.32292 1.3229151,1.3229166 0 0 1 1.3229,-1.32291 z m -9.260401,5.29166 c 2.703901,0 5.312701,0 7.937501,0 l 0.8821,2.64584 H 9.7011322 Z"/>
<metadata id="license" xmlns:rdf="http://www.w3.org/1999/02/22-rdf-syntax-ns#" xmlns:cc="http://creativecommons.org/ns#"><cc:Work><cc:license rdf:resource="https://creativecommons.org/publicdomain/zero/1.0/"/></cc:Work></metadata>
</svg>