<?xml version="1.0" encoding="UTF-8"?>
<svg version="1.1" id="tram" width="110" height="110" viewBox="0 0 29.104168 29.104166" xmlns="http://www.w3.org/2000/svg">
<path d="m 18.520901,0.33073758 c -0.3308,0 -0.6615,0.33073001 -1.323,0.99218002 l -2.6458,2.64584 c -1.3229,1.3229 -1.3229,1.32291 0,2.64583 l 1.3229,1.32292 H 2.6459001 c 0,0 -2.6459001,-10e-6 -2.6459001,2.6458294 v 7.9375 5.29167 c 0,2.64583 0,2.64583 2.6459001,2.64583 h 2.6458 c 0,1.46125 1.1846,2.64583 2.6458,2.64583 1.4613,0 2.6459009,-1.18458 2.6459009,-2.64583 h 7.9375 c 0,1.46125 1.1845,2.64583 2.6458,2.64583 1.4612,0 2.6458,-1.18458 2.6458,-2.64583 h 2.6459 c 2.6458,0 2.6458,0 2.6458,-2.64583 v -5.29167 -7.9375 c 0,0 0,-2.6458294 -2.6458,-2.6458294 h -5.2917 l 1.3229,-1.32292 c 1.3229,-1.32292 1.3229,-1.32292 0,-2.64583 -1.3229,-1.32288 -1.7639,-1.7639 -2.6458,-2.64584 -0.6615,-0.66145001 -0.9922,-0.99218002 -1.3229,-0.99218002 z m 0,2.31510002 2.6458,2.64583 -2.6458,2.64584 -2.6459,-2.64584 z M 3.9688001,10.583337 h 2.6458 c 0.7329,0 1.3229,0.59002 1.3229,1.32292 v 5.29166 c 0,0.7329 -0.59,1.32292 -1.3229,1.32292 h -2.6458 c -0.7329,0 -1.3229,-0.59002 -1.3229,-1.32292 v -5.29166 c 0,-0.7329 0.59,-1.32292 1.3229,-1.32292 z m 7.9375009,0 h 5.2916 c 0.7329,0 1.323,0.59003 1.323,1.32292 v 5.29166 c 0,0.7329 -0.5901,1.32292 -1.323,1.32292 h -5.2916 c -0.7329,0 -1.3229,-0.59002 -1.3229,-1.32292 v -5.29166 c 0,-0.73289 0.59,-1.32292 1.3229,-1.32292 z m 10.5833,0 h 2.6458 c 0.7329,0 1.323,0.59002 1.323,1.32292 v 5.29166 c 0,0.7329 -0.5901,1.32292 -1.323,1.32292 h -2.6458 c -0.7329,0 -1.3229,-0.59002 -1.3229,-1.32292 v -5.29166 c 0,-0.7329 0.59,-1.32292 1.3229,-1.32292 z"/>
<metadata id="license" xmlns:rdf="http://www.w3.org/1999/02/22-rdf-syntax-ns#" xmlns:cc="http://creativecommons.org/ns#"><cc:Work><cc:license rdf:resource="https://creativecommons.org/publicdomain/zero/1.0/"/></cc:Work></metadata>
</svg>