<?xml version="1.0" encoding="UTF-8"?>
<svg version="1.1" id="bicycle" width="110" height="110" viewBox="0 0 29.104166 29.104166" xmlns="http://www.w3.org/2000/svg">
<path d="m 17.197083,6.2839678 a 0.66145998,0.66145998 0 0 0 -0.6619,0.66198 0.66145998,0.66145998 0 0 0 0.6619,0.66042 h 1.2873 l 0.5219,1.56631 -6.6931,2.2313902 a 0.66145998,0.66145998 0 0 0 0.2532,-0.48937 0.66145998,0.66145998 0 0 0 -0.662,-0.66198 H 9.2595827 a 0.66152613,0.66152613 0 0 0 -0.2966,1.25367 l 1.8263003,0.91209 -0.9349003,0.93483 a 5.2916656,5.2916656 0 0 0 -3.2411,-1.11621 5.2916656,5.2916656 0 0 0 -5.2916999,5.29166 5.2916656,5.2916656 0 0 0 5.2916999,5.29167 5.2916656,5.2916656 0 0 0 5.2493003,-4.63021 h 2.6882 a 0.66152613,0.66152613 0 0 0 0.041,-0.004 0.66145998,0.66145998 0 0 0 0.057,-0.006 0.66152613,0.66152613 0 0 0 0.063,-0.0129 0.66145998,0.66145998 0 0 0 0.056,-0.0171 0.66152613,0.66152613 0 0 0 0.061,-0.0238 0.66145998,0.66145998 0 0 0 0.018,-0.007 0.66145998,0.66145998 0 0 0 0.069,-0.0398 0.66152613,0.66152613 0 0 0 0.013,-0.009 0.66145998,0.66145998 0 0 0 0.08,-0.0656 0.66152613,0.66152613 0 0 0 0.021,-0.0207 0.66145998,0.66145998 0 0 0 0.064,-0.078 0.66152613,0.66152613 0 0 0 0.01,-0.0114 l 4.5413,-6.81251 0.5602,1.68 a 5.2916679,5.2916656 0 0 0 -3.006,4.76612 5.2916679,5.2916656 0 0 0 5.2916,5.29167 5.2916679,5.2916656 0 0 0 5.2917,-5.29167 5.2916679,5.2916656 0 0 0 -5.2917,-5.29166 5.2916679,5.2916656 0 0 0 -1.0314,0.1049 l -0.9865,-2.9605402 -0.8832,-2.64635 a 0.66152613,0.66152613 0 0 0 -0.6268,-0.45114 z m 1.0258,4.5449402 -3.5899,5.3852 -1.7958,-3.59047 z m -6.4988,2.52388 1.7565,3.51503 h -1.6216 a 5.2916656,5.2916656 0 0 0 -1.0702,-2.57969 z m -5.1108003,0.64802 a 3.527777,3.527777 0 0 1 1.9833,0.6103 l -2.4499,2.44998 a 0.66145998,0.66145998 0 0 0 0,0.93586 0.66145998,0.66145998 0 0 0 0.4666,0.19327 h 3.4649003 a 3.527777,3.527777 0 0 1 -3.4649003,2.86649 3.527777,3.527777 0 0 1 -3.528,-3.52795 3.527777,3.527777 0 0 1 3.528,-3.52795 z m 15.8750003,0 a 3.5277786,3.527777 0 0 1 3.5279,3.52795 3.5277786,3.527777 0 0 1 -3.5279,3.52795 3.5277786,3.527777 0 0 1 -3.528,-3.52795 3.5277786,3.527777 0 0 1 1.8061,-3.07423 l 1.0945,3.28249 a 0.66145998,0.66145998 0 0 0 0.8357,0.42013 0.66145998,0.66145998 0 0 0 0.418,-0.83819 l -1.094,-3.28456 a 3.5277786,3.527777 0 0 1 0.4677,-0.0336 z m -12.9574003,1.54513 a 3.527777,3.527777 0 0 1 0.5473003,1.32188 H 8.2090827 Z"/>
<metadata id="license" xmlns:rdf="http://www.w3.org/1999/02/22-rdf-syntax-ns#" xmlns:cc="http://creativecommons.org/ns#"><cc:Work><cc:license rdf:resource="https://creativecommons.org/publicdomain/zero/1.0/"/></cc:Work></metadata>
</svg>