<?xml version="1.0" encoding="UTF-8"?>
<svg version="1.1" id="car" width="110" height="110" viewBox="0 0 29.104166 29.104165" xmlns="http://www.w3.org/2000/svg">
<path d="m 7.9374329,2.6458327 c -5.2916001,0 -2.6458,13.2291703 -5.2916001,13.2291703 v 5.29166 c 0,2.64584 2.6458001,2.64584 2.6458001,2.64584 v 1.32291 c 0,0.7329 0.59,1.32292 1.3229,1.32292 0.7329,0 1.3229,-0.59002 1.3229,-1.32292 v -1.32291 H 21.166633 v 1.32291 c 0,0.7329 0.59,1.32292 1.3229,1.32292 0.7329,0 1.3229,-0.59002 1.3229,-1.32292 v -1.32291 c 2.6459,0 2.6459,-2.64584 2.6459,-2.64584 v -5.29166 c -2.6459,0 -10e-5,-13.2291703 -5.2917,-13.2291703 z m 0,2.64583 H 21.166633 c 2.6458,0 2.6458,5.2916903 2.6458,7.9375003 H 5.2916329 c 0,-2.64581 0,-7.9374903 2.6458,-7.9375003 z m 0,10.5833403 a 2.6458261,1.3229046 0 0 1 2.6459001,1.32291 2.6458261,1.3229046 0 0 1 -2.6459001,1.32292 2.6458261,1.3229046 0 0 1 -2.6458,-1.32292 2.6458261,1.3229046 0 0 1 2.6458,-1.32291 z m 13.2292001,0 a 2.6458461,1.3229257 0 0 1 2.6458,1.32291 2.6458461,1.3229257 0 0 1 -2.6458,1.32292 2.6458461,1.3229257 0 0 1 -2.6458,-1.32292 2.6458461,1.3229257 0 0 1 2.6458,-1.32291 z m -10.5833,2.64583 h 7.9375 v 2.64583 h -7.9375 z"/>
<metadata id="license" xmlns:rdf="http://www.w3.org/1999/02/22-rdf-syntax-ns#" xmlns:cc="http://creativecommons.org/ns#"><cc:Work><cc:license rdf:resource="https://creativecommons.org/publicdomain/zero/1.0/"/></cc:Work></metadata>
</svg>