<?xml version="1.0" encoding="UTF-8"?>
<svg version="1.1" id="subway" width="110" height="110" viewBox="0 0 29.104165 29.104165" xmlns="http://www.w3.org/2000/svg">
<path d="m 5.2916661,2.6458332 c -1.4657999,0 -2.6458339,1.1800446 -2.6458339,2.6458332 V 23.812499 c 0,1.465788 1.180034,2.645833 2.6458339,2.645833 H 23.812498 c 1.465799,0 2.645833,-1.180045 2.645833,-2.645833 V 5.2916664 c 0,-1.4657886 -1.180034,-2.6458332 -2.645833,-2.6458332 z m 0,2.6458332 h 5.2916659 v 7.9374996 c 0,2.645827 5.6e-5,5.291666 3.968751,5.291666 3.968796,0 3.968749,-2.645839 3.968749,-5.291666 V 5.2916664 h 5.291666 V 15.874999 c 0,5.291655 -2.645805,7.9375 -7.9375,7.9375 h -2.645832 c -5.2916944,0 -7.9374999,-2.645845 -7.9374999,-7.9375 z"/>
<path d="m 5.2916326,5.2916624 h 5.2917004 v 7.9375006 c 0,2.64583 0,5.29167 3.968699,5.29167 3.9688,0 3.9688,-2.64584 3.9688,-5.29167 V 5.2916624 h 5.2916 V 15.875003 c 0,5.29166 -2.6458,7.9375 -7.9375,7.9375 h -2.6458 c -5.2916994,0 -7.9374994,-2.64584 -7.9374994,-7.9375 z"/>
<metadata id="license" xmlns:rdf="http://www.w3.org/1999/02/22-rdf-syntax-ns#" xmlns:cc="http://creativecommons.org/ns#"><cc:Work><cc:license rdf:resource="https://creativecommons.org/publicdomain/zero/1.0/"/></cc:Work></metadata>
</svg>