<?xml version="1.0" encoding="UTF-8"?>
<svg version="1.1" id="chalet" width="180" height="180" viewBox="0 0 15 15" xmlns="http://www.w3.org/2000/svg">
<path d="m 9.544922,1.1214493 c -0.041779,-0.0013 -0.083963,0.013279 -0.116862,0.044108 l -0.00716,0.00716 L 6.854004,3.4168594 5.5828451,2.3004857 c -0.03092,-0.032818 -0.072154,-0.049967 -0.1139323,-0.051269 -0.041779,-0.0013 -0.084122,0.013279 -0.1170247,0.044108 l -0.00716,0.00716 -4.0893554,3.5750326 c -0.061774,0.065937 -0.058454,0.1693453 0.00749,0.2311198 0.029749,0.027871 0.068938,0.043708 0.1097006,0.044271 l 0.5467122,0.00781 3.4254557,-2.9946289 0.00716,-0.00732 c 0.065805,-0.061654 0.1691174,-0.058314 0.230957,0.00732 L 6.3613282,3.8475235 5.331543,4.7477514 c -0.061774,0.065937 -0.058454,0.1693455 0.00749,0.2311197 0.029749,0.027871 0.068775,0.043709 0.1095378,0.044271 l 0.5467122,0.00781 3.4256185,-2.9947917 0.00716,-0.00716 c 0.065805,-0.061654 0.1691166,-0.058475 0.230957,0.00716 l 3.420084,3.0032552 h 0.54948 c 0.09035,3.01e-4 0.163761,-0.072571 0.164062,-0.1629232 1.37e-4,-0.041757 -0.0157,-0.082006 -0.04427,-0.1124674 V 4.7638646 L 9.659017,1.1727188 C 9.6280935,1.1399015 9.5867014,1.1227519 9.544922,1.1214493 Z m 1.043782,3.8813476 c -0.361411,0 -0.6542964,0.2928902 -0.6542964,0.6542969 V 6.9660131 L 7.7635092,5.0617162 c -0.06184,-0.065635 -0.1649886,-0.068815 -0.2307943,-0.00716 l -0.00716,0.00716 L 3.436198,8.636586 c -0.061774,0.065937 -0.058613,0.1695081 0.00732,0.2312825 0.029749,0.027871 0.068938,0.043709 0.1097005,0.044271 l 0.4928386,0.007 V 11.053415 L 1.5878907,10.537953 a 0.41666651,0.41666651 0 0 0 -0.4941406,0.322265 0.41666651,0.41666651 0 0 0 0.3222656,0.494141 l 11.9980463,2.515625 a 0.41666651,0.41666651 0 0 0 0.492188,-0.322266 0.41666651,0.41666651 0 0 0 -0.322266,-0.49414 l -2.359375,-0.494792 c 0.0118,-0.0236 0.01856,-0.05012 0.01856,-0.07731 V 8.9284154 h 0.489909 c 0.09035,3.01e-4 0.163924,-0.072734 0.164225,-0.1630859 1.37e-4,-0.041756 -0.0157,-0.081843 -0.04427,-0.1123047 V 8.652862 L 11.243164,8.116892 V 5.6570938 c 0,-0.3614067 -0.293045,-0.6542969 -0.65446,-0.6542969 z M 6.663086,10.68167 h 1.9630534 v 1.332194 L 6.663086,11.602243 Z"/>
<metadata id="license" xmlns:rdf="http://www.w3.org/1999/02/22-rdf-syntax-ns#" xmlns:cc="http://creativecommons.org/ns#"><cc:Work><cc:license rdf:resource="https://creativecommons.org/publicdomain/zero/1.0/"/></cc:Work></metadata>
</svg>