<?xml version="1.0" encoding="UTF-8"?>
<svg version="1.1" id="community" width="180" height="180" viewBox="0 0 15 15" xmlns="http://www.w3.org/2000/svg">
<path d="m 3.8479816,0.503191 a 1.3694909,1.3694909 0 0 0 0,2.7389323 1.3694909,1.3694909 0 0 0 0,-2.7389323 z m 7.3040364,0 a 1.3694909,1.3694909 0 0 0 0,2.7389323 1.3694909,1.3694909 0 0 0 0,-2.7389323 z M 7.4999998,1.7204762 a 1.3695475,1.3695475 0 0 0 0,2.739095 1.3695475,1.3695475 0 0 0 0,-2.739095 z M 2.0219725,4.1552092 A 0.45649695,0.45649695 0 0 0 1.5655922,4.6115894 v 4.5651042 a 0.45649695,0.45649695 0 0 0 0.9129232,0 v 3.6518554 a 0.456543,0.456543 0 0 0 0.913086,0 V 9.1766936 h 0.9129231 v 3.6518554 a 0.45649695,0.45649695 0 0 0 0.9129232,0 v -2.43457 a 0.456543,0.456543 0 0 0 0.913086,0 v 3.652018 a 0.45649695,0.45649695 0 0 0 0.9129231,0 v -3.652018 h 0.913086 v 3.652018 a 0.45649695,0.45649695 0 0 0 0.9129231,0 v -3.652018 a 0.456543,0.456543 0 0 0 0.913086,0 v 2.43457 a 0.4564971,0.4564971 0 0 0 0.9129231,0 V 9.1766936 h 0.912923 v 3.6518554 a 0.456543,0.456543 0 0 0 0.913086,0 V 9.1766936 a 0.456497,0.456497 0 0 0 0.912924,0 V 4.6115894 A 0.45649695,0.45649695 0 0 0 12.978027,4.1552092 H 9.3260089 a 0.45649695,0.45649695 0 0 0 -0.456543,0.4563802 v 0.760905 H 6.1305337 V 4.6115894 A 0.45649695,0.45649695 0 0 0 5.6739907,4.1552092 Z"/>
<metadata id="license" xmlns:rdf="http://www.w3.org/1999/02/22-rdf-syntax-ns#" xmlns:cc="http://creativecommons.org/ns#"><cc:Work><cc:license rdf:resource="https://creativecommons.org/publicdomain/zero/1.0/"/></cc:Work></metadata>
</svg>