<?xml version="1.0" encoding="UTF-8"?>
<svg version="1.1" id="computer" width="150" height="150" viewBox="0 0 39.6875 39.6875" xmlns="http://www.w3.org/2000/svg">
<path d="M 5.953125 2.6458333 C 4.4873391 2.6458333 3.3072917 3.8258806 3.3072917 5.2916667 L 3.3072917 22.489583 C 3.3072917 23.955371 4.4873391 25.135417 5.953125 25.135417 L 33.734375 25.135417 C 35.200161 25.135417 36.380208 23.955371 36.380208 22.489583 L 36.380208 5.2916667 C 36.380208 3.8258806 35.200161 2.6458333 33.734375 2.6458333 L 5.953125 2.6458333 z M 6.9649495 3.96875 L 32.72255 3.96875 C 34.015891 3.96875 35.057292 5.0101509 35.057292 6.3034912 L 35.057292 21.477759 C 35.057292 22.771097 34.015891 23.8125 32.72255 23.8125 L 6.9649495 23.8125 C 5.6716092 23.8125 4.6302083 22.771097 4.6302083 21.477759 L 4.6302083 6.3034912 C 4.6302083 5.0101509 5.6716092 3.96875 6.9649495 3.96875 z M 7.9369832 6.6145833 C 7.2063572 6.6148686 6.6142978 7.2073907 6.6145833 7.9380168 C 6.6148686 8.6684409 7.2070757 9.2604168 7.9375 9.2604167 C 8.668126 9.2604168 9.2604168 8.668126 9.2604167 7.9375 L 9.2604167 7.9369832 C 9.2601314 7.2063572 8.6676093 6.6142978 7.9369832 6.6145833 z M 11.905733 6.6151001 C 11.175107 6.6153854 10.583048 7.2079075 10.583333 7.9385335 C 10.583618 8.6689578 11.175826 9.2609337 11.90625 9.2609334 C 12.636876 9.2609336 13.229167 8.6686428 13.229167 7.9380168 L 13.229167 7.9375 C 13.228882 7.2068737 12.63636 6.6148143 11.905733 6.6151001 z M 21.166667 9.2604167 L 21.166667 18.520833 L 23.01875 16.66875 L 24.870833 20.902083 L 26.9875 19.84375 L 25.135417 15.875 L 27.78125 15.875 L 21.166667 9.2604167 z M 7.9369832 10.583333 C 7.206357 10.583618 6.6142975 11.17614 6.6145833 11.906767 C 6.6148685 12.637191 7.2070757 13.229167 7.9375 13.229167 C 8.6681262 13.229167 9.2604169 12.636876 9.2604167 11.90625 L 9.2604167 11.905733 C 9.2601314 11.175107 8.6676093 10.583047 7.9369832 10.583333 z M 5.953125 26.458333 C 4.4873391 26.458333 3.3072917 27.638379 3.3072917 29.104167 L 3.3072917 34.395833 C 3.3072917 35.861621 4.4873391 37.041667 5.953125 37.041667 L 33.734375 37.041667 C 35.200161 37.041667 36.380208 35.861621 36.380208 34.395833 L 36.380208 29.104167 C 36.380208 27.638379 35.200161 26.458333 33.734375 26.458333 L 5.953125 26.458333 z M 5.9526082 27.78125 C 6.6832343 27.780964 7.2757564 28.373024 7.2760417 29.10365 L 7.2760417 29.104167 C 7.2760414 29.834792 6.6837508 30.427083 5.953125 30.427083 C 5.2227007 30.427083 4.6304935 29.835108 4.6302083 29.104683 C 4.629923 28.374057 5.2219824 27.781535 5.9526082 27.78125 z M 9.9213582 27.78125 C 10.651984 27.780964 11.244507 28.373024 11.244792 29.10365 L 11.244792 29.104167 C 11.244792 29.834793 10.652501 30.427083 9.921875 30.427083 C 9.1914507 30.427083 8.5992435 29.835108 8.5989583 29.104683 C 8.598673 28.374057 9.1907324 27.781535 9.9213582 27.78125 z M 13.890108 27.78125 C 14.620735 27.780964 15.213257 28.373024 15.213542 29.10365 L 15.213542 29.104167 C 15.213542 29.834793 14.621251 30.427083 13.890625 30.427083 C 13.160201 30.427083 12.567993 29.835108 12.567708 29.104683 C 12.567423 28.374057 13.159482 27.781535 13.890108 27.78125 z M 17.858858 27.78125 C 18.589485 27.780964 19.182007 28.373024 19.182292 29.10365 L 19.182292 29.104167 C 19.182292 29.834793 18.590001 30.427083 17.859375 30.427083 C 17.128951 30.427083 16.536743 29.835108 16.536458 29.104683 C 16.536173 28.374057 17.128232 27.781535 17.858858 27.78125 z M 21.827608 27.78125 C 22.558235 27.780964 23.150757 28.373024 23.151042 29.10365 L 23.151042 29.104167 C 23.151042 29.834793 22.558751 30.427083 21.828125 30.427083 C 21.097701 30.427083 20.505493 29.835108 20.505208 29.104683 C 20.504923 28.374057 21.096982 27.781535 21.827608 27.78125 z M 25.796358 27.78125 C 26.526985 27.780964 27.119507 28.373024 27.119792 29.10365 L 27.119792 29.104167 C 27.119792 29.834793 26.527501 30.427083 25.796875 30.427083 C 25.066451 30.427083 24.474243 29.835108 24.473958 29.104683 C 24.473673 28.374057 25.065732 27.781535 25.796358 27.78125 z M 29.765108 27.78125 C 30.495735 27.780964 31.088257 28.373024 31.088542 29.10365 L 31.088542 29.104167 C 31.088542 29.834793 30.496251 30.427083 29.765625 30.427083 C 29.035201 30.427083 28.442993 29.835108 28.442708 29.104683 C 28.442423 28.374057 29.034482 27.781535 29.765108 27.78125 z M 33.733858 27.78125 C 34.464485 27.780964 35.057007 28.373024 35.057292 29.10365 L 35.057292 29.104167 C 35.057292 29.834793 34.465001 30.427083 33.734375 30.427083 C 33.003951 30.427083 32.411743 29.835108 32.411458 29.104683 C 32.411173 28.374057 33.003232 27.781535 33.733858 27.78125 z M 5.9526082 31.75 C 6.6832343 31.749714 7.2757564 32.341774 7.2760417 33.0724 L 7.2760417 33.072917 C 7.2760414 33.803542 6.6837508 34.395833 5.953125 34.395833 C 5.2227007 34.395833 4.6304935 33.803858 4.6302083 33.073433 C 4.629923 32.342807 5.2219824 31.750285 5.9526082 31.75 z M 9.9213582 31.75 C 10.651984 31.749714 11.244507 32.341774 11.244792 33.0724 L 11.244792 33.072917 C 11.244792 33.803543 10.652501 34.395833 9.921875 34.395833 C 9.1914507 34.395833 8.5992435 33.803858 8.5989583 33.073433 C 8.598673 32.342807 9.1907324 31.750285 9.9213582 31.75 z M 13.890108 31.75 C 14.620735 31.749714 15.213257 32.341774 15.213542 33.0724 L 15.213542 33.072917 C 15.213542 33.803543 14.621251 34.395833 13.890625 34.395833 C 13.160201 34.395833 12.567993 33.803858 12.567708 33.073433 C 12.567423 32.342807 13.159482 31.750285 13.890108 31.75 z M 17.858858 31.75 C 18.589485 31.749714 19.182007 32.341774 19.182292 33.0724 L 19.182292 33.072917 C 19.182292 33.803543 18.590001 34.395833 17.859375 34.395833 C 17.128951 34.395833 16.536743 33.803858 16.536458 33.073433 C 16.536173 32.342807 17.128232 31.750285 17.858858 31.75 z M 21.827608 31.75 C 22.558235 31.749714 23.150757 32.341774 23.151042 33.0724 L 23.151042 33.072917 C 23.151042 33.803543 22.558751 34.395833 21.828125 34.395833 C 21.097701 34.395833 20.505493 33.803858 20.505208 33.073433 C 20.504923 32.342807 21.096982 31.750285 21.827608 31.75 z M 25.796358 31.75 C 26.526985 31.749714 27.119507 32.341774 27.119792 33.0724 L 27.119792 33.072917 C 27.119792 33.803543 26.527501 34.395833 25.796875 34.395833 C 25.066451 34.395833 24.474243 33.803858 24.473958 33.073433 C 24.473673 32.342807 25.065732 31.750285 25.796358 31.75 z M 29.765108 31.75 C 30.495735 31.749714 31.088257 32.341774 31.088542 33.0724 L 31.088542 33.072917 C 31.088542 33.803543 30.496251 34.395833 29.765625 34.395833 C 29.035201 34.395833 28.442993 33.803858 28.442708 33.073433 C 28.442423 32.342807 29.034482 31.750285 29.765108 31.75 z M 33.733858 31.75 C 34.464485 31.749714 35.057007 32.341774 35.057292 33.0724 L 35.057292 33.072917 C 35.057292 33.803543 34.465001 34.395833 33.734375 34.395833 C 33.003951 34.395833 32.411743 33.803858 32.411458 33.073433 C 32.411173 32.342807 33.003232 31.750285 33.733858 31.75 z "/>
<metadata id="license" xmlns:rdf="http://www.w3.org/1999/02/22-rdf-syntax-ns#" xmlns:cc="http://creativecommons.org/ns#"><cc:Work><cc:license rdf:resource="https://creativecommons.org/publicdomain/zero/1.0/"/></cc:Work></metadata>
</svg>