<?xml version="1.0" encoding="UTF-8"?>
<svg version="1.1" id="emergency-access" width="150" height="150" viewBox="0 0 39.6875 39.6875" xmlns="http://www.w3.org/2000/svg">
<path d="M 8.6514926,1.65e-7 V 14.007346 28.014703 H 6.8811334 5.1107245 v 2.178906 2.178896 h 1.7704089 1.7703592 v 2.18671 2.190586 L 7.184586,38.216717 5.7138538,39.6875 14.935367,39.6835 h 9.221502 l 1.147785,-1.202332 1.147846,-1.198394 1.97657,-0.01171 c 1.085567,-0.0081 1.972745,-0.0081 1.972745,0.004 0,0.01171 -0.536963,0.556448 -1.194528,1.214023 l -1.198394,1.198393 h 1.770348 l 1.770359,-0.004 1.513588,-1.466896 1.513588,-1.466916 -0.02726,-3.482345 c -0.01171,-1.914332 -0.03503,-5.70023 -0.04664,-8.416088 l -0.02726,-4.929855 h -3.237262 -3.237265 l -0.704236,-1.704243 c -0.385207,-0.93382 -0.875458,-2.116667 -1.08168,-2.626372 -0.210109,-0.505828 -0.39299,-0.922149 -0.404671,-0.922149 -0.02726,0 0.01555,-0.06219 -2.525204,3.99212 l -2.264516,3.622441 4.688553,7.163209 c 2.583576,3.937614 4.69249,7.170971 4.69249,7.182642 0,0.01171 -0.863807,0.02332 -1.922135,0.02332 h -1.918259 l -4.315007,-6.365538 -4.315057,-6.369485 -0.01171,3.859828 -0.0081,3.855901 H 11.900095 5.8886081 v -1.478587 -1.478536 h 4.3772969 4.377297 v -3.84422 -3.840394 l 2.999866,-4.86364 c 1.649757,-2.676951 3.042703,-4.9376 3.097168,-5.030984 l 0.09732,-0.163407 H 18.19175 15.545874 l -1.587457,2.634185 c -0.875457,1.451319 -1.649787,2.735283 -1.727604,2.855905 l -0.136159,0.22182 -1.284014,-0.750979 C 9.9702036,15.407853 9.5305416,15.127701 9.5383156,15.092689 c 0.0081,-0.03109 1.0038224,-1.661407 2.2138974,-3.626317 l 2.1984,-3.5680151 h 4.291685 4.291696 l 0.04674,0.2606978 c 0.02726,0.1673138 0.09732,0.3501748 0.190655,0.5135918 0.08167,0.1400759 0.198398,0.3424113 0.25676,0.4513526 0.178985,0.3112766 0.828806,0.9532739 1.202332,1.1828369 0.505828,0.307389 1.038884,0.529209 1.501907,0.618696 0.606986,0.120622 0.739248,0.132293 1.451288,0.15953 l 0.657565,0.02332 1.171156,3.101106 1.175084,3.104912 h 2.147791 2.151709 V 8.6573022 1.65e-7 H 21.569062 Z M 26.816758,2.8620529 c 0.03594,-7.673e-4 0.06471,-3.231e-4 0.08319,0.00202 0.0739,0.00808 0.241224,0.023321 0.369619,0.035032 0.750949,0.0739 1.319037,0.3190502 1.894888,0.8170948 0.591428,0.5136019 0.972718,1.0855763 1.112794,1.6769948 0.190654,0.8015274 0.190654,1.3618414 0,2.1555855 -0.140076,0.5836449 -0.669225,1.4007498 -1.112794,1.7198 -0.696473,0.5058181 -1.136145,0.6809258 -1.94157,0.770422 -0.727597,0.08561 -1.618642,-0.07784 -2.155585,-0.3891125 -0.824878,-0.4824772 -1.521382,-1.3501407 -1.700366,-2.1205435 -0.186768,-0.7976409 -0.186768,-1.2956754 0,-2.1010997 0.132292,-0.5758612 0.330741,-0.8910549 0.961068,-1.5097113 0.747052,-0.7353812 1.070049,-0.8949215 2.046674,-1.0194301 0.160499,-0.020393 0.334083,-0.034325 0.442055,-0.036647 z"/>
<metadata id="license" xmlns:rdf="http://www.w3.org/1999/02/22-rdf-syntax-ns#" xmlns:cc="http://creativecommons.org/ns#"><cc:Work><cc:license rdf:resource="https://creativecommons.org/publicdomain/zero/1.0/"/></cc:Work></metadata>
</svg>