<?xml version="1.0" encoding="UTF-8"?>
<svg version="1.1" id="fountain" width="180" height="180" viewBox="0 0 15 15" xmlns="http://www.w3.org/2000/svg">
<path d="M 6.2324219 11.513021 A 4.2352748 1.5590721 0 0 0 3.2646484 13.000814 A 4.2352748 1.5590721 0 0 0 7.5004883 14.55957 A 4.2352748 1.5590721 0 0 0 11.735189 13.000488 L 11.735189 12.999837 A 4.2352748 1.5590721 0 0 0 8.7674154 11.513021 L 8.7674154 12.154948 A 2.8357928 0.94526422 0 0 1 10.335775 13.000163 L 10.335775 13.000488 A 2.8357928 0.94526422 0 0 1 7.5003255 13.945801 A 2.8357928 0.94526422 0 0 1 4.6642253 13.000651 A 2.8357928 0.94526422 0 0 1 6.2324219 12.155273 L 6.2324219 11.513021 z "/>
<path d="M 4.6082194,1.6235114 C 3.5645141,1.623512 2.6970611,1.8908264 2.1018098,2.4860777 1.5065595,3.081328 1.239244,3.9532971 1.2392439,4.9970033 1.2408871,5.2606992 1.4542495,5.4740616 1.7179454,5.4757048 1.9834032,5.4765393 2.1995049,5.2624573 2.2011631,4.9970033 2.2011634,4.1138678 2.4155637,3.5361718 2.783734,3.1680015 3.1519044,2.7998313 3.7250842,2.5854312 4.6082194,2.5854308 c 0.8831359,4e-7 1.4608319,0.2144005 1.8290014,0.5825707 0.3561794,0.356179 0.5683699,0.9083508 0.5818185,1.7435727 C 6.5992295,4.5541807 6.1032783,4.3104312 5.5656227,4.3241112 4.9275128,4.3274718 4.342793,4.6301828 3.9082311,5.064744 3.471255,5.5017208 3.1630823,6.0888866 3.1630823,6.7311677 c 0.00166,0.265454 0.21776,0.4795358 0.4832179,0.4787013 0.2654577,8.345e-4 0.4815594,-0.2132474 0.4832177,-0.4787013 0,-0.3211404 0.1750465,-0.6989104 0.4606372,-0.9844998 0.2855894,-0.2855893 0.6633594,-0.4606372 0.9844998,-0.4606372 0.00453,6.34e-5 0.00903,6.34e-5 0.013549,0 0.1988809,-0.00581 0.6054586,0.1631873 0.9167585,0.4606372 0.2967086,0.2835075 0.4953389,0.653201 0.5133247,0.94235 v 0.1377383 6.5497318 l 0.9634247,10e-7 V 13.336972 6.7846066 C 7.9997003,6.4954587 8.1984154,6.125765 8.4950359,5.8422579 8.8063367,5.5448083 9.2129211,5.3758168 9.4117948,5.3816202 c 0.00453,6.35e-5 0.00903,6.35e-5 0.013549,0 0.3211414,0 0.6989102,0.1750489 0.9844982,0.4606377 0.285592,0.2855887 0.460638,0.6633594 0.460638,0.9844994 0.0017,0.2654533 0.217759,0.4795348 0.483216,0.4787013 0.265458,8.343e-4 0.481559,-0.2132476 0.483218,-0.4787013 0,-0.6422804 -0.308172,-1.2294472 -0.745149,-1.6664233 C 10.657204,4.7257726 10.072487,4.4230539 9.434375,4.4197012 8.8970666,4.4060128 8.4013485,4.6493927 7.9817112,5.0064117 v -0.00941 c 0,-0.0053 1.39e-5,-0.010516 0,-0.015816 0.017434,-0.8206232 0.228616,-1.365155 0.5810655,-1.7176053 0.368172,-0.3681691 0.9458643,-0.5825702 1.8290013,-0.5825707 0.883133,5e-7 1.456316,0.2144004 1.824485,0.5825707 0.368181,0.3681702 0.58257,0.9458661 0.58257,1.8290014 0.0017,0.2654556 0.217762,0.4795386 0.483221,0.4787019 0.263697,-0.00164 0.477059,-0.2150062 0.478702,-0.4787019 0,-1.0437053 -0.267314,-1.9156744 -0.862567,-2.5109257 C 12.302839,1.9864264 11.435481,1.719102 10.391778,1.7191015 9.348069,1.719102 8.4761049,1.9864171 7.8808527,2.5816675 7.7471073,2.7154133 7.6299222,2.86337 7.5286007,3.0238643 7.4148592,2.8260838 7.2790314,2.6459635 7.119145,2.4860777 6.5238946,1.8908264 5.6519261,1.623512 4.6082194,1.6235114 Z"/>
<path d="M 2.1967843,6.4204316 A 0.4787702,0.4787702 0 0 1 1.7180661,6.8992018 0.4787702,0.4787702 0 0 1 1.2392439,6.4205356 0.4787702,0.4787702 0 0 1 1.7178582,5.9416614 0.4787702,0.4787702 0 0 1 2.1967843,6.4202237"/>
<path d="M 2.1967843,7.9204316 A 0.4787702,0.4787702 0 0 1 1.7180661,8.3992018 0.4787702,0.4787702 0 0 1 1.2392439,7.9205356 0.4787702,0.4787702 0 0 1 1.7178582,7.4416614 0.4787702,0.4787702 0 0 1 2.1967843,7.9202237"/>
<path d="M 13.760756,6.4204316 A 0.4787702,0.4787702 0 0 1 13.282038,6.8992018 0.4787702,0.4787702 0 0 1 12.803216,6.4205356 0.4787702,0.4787702 0 0 1 13.28183,5.9416614 0.4787702,0.4787702 0 0 1 13.760756,6.4202237"/>
<path d="M 13.760756,7.9204316 A 0.4787702,0.4787702 0 0 1 13.282038,8.3992018 0.4787702,0.4787702 0 0 1 12.803216,7.9205356 0.4787702,0.4787702 0 0 1 13.28183,7.4416614 0.4787702,0.4787702 0 0 1 13.760756,7.9202237"/>
<metadata id="license" xmlns:rdf="http://www.w3.org/1999/02/22-rdf-syntax-ns#" xmlns:cc="http://creativecommons.org/ns#"><cc:Work><cc:license rdf:resource="https://creativecommons.org/publicdomain/zero/1.0/"/></cc:Work></metadata>
</svg>