<?xml version="1.0" encoding="UTF-8"?>
<svg version="1.1" id="greengrocer" width="150" height="150" viewBox="0 0 39.6875 39.6875" xmlns="http://www.w3.org/2000/svg">
<path d="M 13.746448 0.68626302 C 12.903085 0.68626363 12.219409 1.369938 12.219409 2.2133016 L 12.219409 3.065446 L 9.1467285 3.065446 C 6.66528 3.065446 6.0926514 6.3091756 6.0926514 6.3091756 L 4.2105957 15.221293 L 7.1168783 15.221293 L 9.0971191 6.0859334 L 30.530953 6.0993693 L 32.523079 15.221293 L 35.387504 15.221293 C 34.528388 11.109876 33.579346 6.3091756 33.579346 6.3091756 C 33.407395 5.4482565 33.026836 4.6424328 32.471403 3.9625488 C 31.9865 3.3913327 31.274543 3.063006 30.525269 3.065446 L 27.440702 3.065446 L 27.440702 2.2133016 C 27.440702 1.3699376 26.757028 0.68626308 25.913664 0.68626302 L 13.746448 0.68626302 z M 3.0385742 18.264001 C -0.98029623 18.278638 -1.0286383 24.283814 2.9894816 24.362854 L 6.0926514 36.506299 C 6.0926514 36.506299 6.66528 39.6875 9.1467285 39.6875 L 30.525269 39.6875 C 33.006718 39.6875 33.579346 36.506299 33.579346 36.506299 L 36.636007 24.372156 C 38.32178 24.370807 39.6875 23.003853 39.6875 21.318079 C 39.687332 19.631469 38.320032 18.264001 36.633423 18.264001 L 3.0385742 18.264001 z M 20.865393 21.463289 C 20.92521 21.463129 20.986074 21.473222 21.045744 21.494812 C 21.318536 21.593518 21.458646 21.892776 21.359937 22.165572 L 20.307288 25.074438 C 20.838294 24.450609 21.47263 24.08702 22.154203 24.087419 C 24.021147 24.088513 27.18841 26.714252 27.188005 30.072066 C 27.187599 33.429881 24.020115 36.248798 22.15317 36.248433 C 21.259954 36.248258 20.447562 35.62443 19.843233 34.606673 C 19.238906 35.62443 18.427031 36.248258 17.533813 36.248433 C 15.666869 36.248798 12.499385 33.429881 12.498979 30.072066 C 12.498574 26.714252 15.665318 24.088519 17.532263 24.087419 C 18.158141 24.087052 18.744092 24.393618 19.246887 24.926644 L 20.374984 21.809005 C 20.452098 21.595883 20.651761 21.463846 20.865393 21.463289 z "/>
<metadata id="license" xmlns:rdf="http://www.w3.org/1999/02/22-rdf-syntax-ns#" xmlns:cc="http://creativecommons.org/ns#"><cc:Work><cc:license rdf:resource="https://creativecommons.org/publicdomain/zero/1.0/"/></cc:Work></metadata>
</svg>