<?xml version="1.0" encoding="UTF-8"?>
<svg version="1.1" id="hydrant" width="150" height="150" viewBox="0 0 39.6875 39.6875" xmlns="http://www.w3.org/2000/svg">
<path d="M 15.875 1.3229167 L 15.875 4.7402791 C 11.998587 6.3113582 9.2640338 10.112297 9.264034 14.552083 L 5.295284 14.552083 L 5.2916667 27.78125 L 9.2604167 27.78125 L 9.2604167 39.6875 L 30.427083 39.6875 L 30.427083 27.78125 L 34.395833 27.78125 L 34.399451 14.552083 L 30.430701 14.552083 L 30.430701 14.547432 C 30.430701 10.106196 27.69203 6.3056424 23.8125 4.7371785 L 23.8125 1.3229167 L 15.875 1.3229167 z M 19.841683 14.552083 A 6.614583 6.614584 0 0 1 26.458333 21.163566 L 26.458333 21.166667 A 6.614583 6.614584 0 0 1 19.844267 27.78125 A 6.614583 6.614584 0 0 1 13.229167 21.168217 A 6.614583 6.614584 0 0 1 19.841683 14.552083 z M 19.8422 17.197917 A 3.96875 3.9687507 0 0 0 15.875 21.1677 A 3.96875 3.9687507 0 0 0 19.844267 25.135417 A 3.96875 3.9687507 0 0 0 23.8125 21.166667 L 23.8125 21.165116 A 3.96875 3.9687507 0 0 0 19.8422 17.197917 z "/>
<metadata id="license" xmlns:rdf="http://www.w3.org/1999/02/22-rdf-syntax-ns#" xmlns:cc="http://creativecommons.org/ns#"><cc:Work><cc:license rdf:resource="https://creativecommons.org/publicdomain/zero/1.0/"/></cc:Work></metadata>
</svg>