<?xml version="1.0" encoding="UTF-8"?>
<svg version="1.1" id="icerink" width="150" height="150" viewBox="0 0 39.6875 39.6875" xmlns="http://www.w3.org/2000/svg">
<path d="M 22.489583 1.3229167 C 22.489583 11.906239 21.166651 19.84375 5.2916667 19.84375 C 5.3583333e-06 19.84375 -6.2665859e-16 23.812504 0 27.78125 L 9.2604167 27.78125 L 9.2604167 35.71875 C 5.2916707 35.71875 3.96875 34.395829 3.96875 30.427083 L 0 30.427083 C 0 38.364575 1.3229234 39.6875 7.9375 39.6875 L 39.6875 39.6875 L 39.6875 35.71875 L 34.395833 35.71875 L 34.395833 27.78125 L 39.6875 27.78125 L 37.041667 1.3229167 L 22.489583 1.3229167 z M 13.229167 27.78125 L 30.427083 27.78125 L 30.427083 35.71875 L 13.229167 35.71875 L 13.229167 27.78125 z "/>
<metadata id="license" xmlns:rdf="http://www.w3.org/1999/02/22-rdf-syntax-ns#" xmlns:cc="http://creativecommons.org/ns#"><cc:Work><cc:license rdf:resource="https://creativecommons.org/publicdomain/zero/1.0/"/></cc:Work></metadata>
</svg>