<?xml version="1.0" encoding="UTF-8"?>
<svg version="1.1" id="jewelry" width="150" height="150" viewBox="0 0 39.6875 39.6875" xmlns="http://www.w3.org/2000/svg">
<path d="m 13.229167,1.6037782 -1.322917,3.96875 3.968234,3.9682332 A 14.552083,14.552083 0 0 0 5.2916665,23.53474 14.552083,14.552083 0 0 0 19.845301,38.083722 14.552083,14.552083 0 0 0 34.395834,23.531639 v -0.0062 A 14.552083,14.552083 0 0 0 23.813534,9.5402447 l 3.967716,-3.9677165 -1.322916,-3.96875 z m 6.610966,11.3445278 a 10.583333,10.583333 0 0 1 10.586951,10.578682 v 0.0047 A 10.583333,10.583333 0 0 1 19.844784,34.114972 10.583333,10.583333 0 0 1 9.2604165,23.533706 10.583333,10.583333 0 0 1 19.840133,12.948306 Z"/>
<metadata id="license" xmlns:rdf="http://www.w3.org/1999/02/22-rdf-syntax-ns#" xmlns:cc="http://creativecommons.org/ns#"><cc:Work><cc:license rdf:resource="https://creativecommons.org/publicdomain/zero/1.0/"/></cc:Work></metadata>
</svg>