<?xml version="1.0" encoding="UTF-8"?>
<svg version="1.1" id="justice" width="180" height="180" viewBox="0 0 15 15" xmlns="http://www.w3.org/2000/svg">
<path d="M 7.4326014,1.8186851 C 7.2391899,1.8190439 6.5827286,2.0062811 6.5833333,2.2366539 V 2.3753257 H 3.584093 C 3.4555792,2.3755645 3.3514481,2.8329291 3.3512476,2.9860028 3.3517384,3.1309232 3.4456833,3.2510422 3.5670122,3.2618817 2.8745739,4.5195891 1.2292661,7.8581055 1.2292661,8.5659182 c 0,0.7807786 1.3562312,1.6005858 2.5186659,1.6005858 1.1624347,0 2.5186659,-0.8588642 2.5186659,-1.6005858 0,-0.6723074 -1.5918113,-4.0387424 -2.3225783,-5.3025716 H 6.5833333 V 12.236654 H 5.3337131 c -0.1927708,3.58e-4 -0.3489674,0.519738 -0.3492681,0.749349 3.007e-4,0.229611 0.1564973,0.415658 0.3492681,0.416016 H 9.5314897 C 9.7242605,13.401661 9.8804572,13.215614 9.8807579,12.986003 9.8804572,12.756392 9.7242605,12.237012 9.5314897,12.236654 H 8.2818695 V 3.2633466 h 2.7469915 c -0.692929,1.2588796 -2.3369267,4.595045 -2.3369267,5.3025716 0,0.7807786 1.3562297,1.6005858 2.5186667,1.6005858 1.162435,0 2.518665,-0.8588642 2.518665,-1.6005858 0,-0.6781291 -1.619293,-4.0967939 -2.341162,-5.3344727 0.07701,-0.047566 0.125491,-0.142116 0.125851,-0.2454427 -2e-4,-0.1530735 -0.104331,-0.610438 -0.232845,-0.6106771 H 8.2818695 V 2.2366539 C 8.2824742,2.0062811 7.6260129,1.8190439 7.4326014,1.8186851 Z M 3.747932,3.9021812 c 0.4490465,0.663556 1.7507273,3.1818475 1.7750364,4.3504232 -1.1642712,0.3876849 -2.3380731,0.3990874 -3.5502094,0 C 1.996682,7.0261323 3.3486071,4.5660007 3.747932,3.9021812 Z m 7.462669,0 c 0.449045,0.663556 1.750863,3.1818475 1.775172,4.3504232 -1.164272,0.3876849 -2.33821,0.3990874 -3.550346,0 0.023918,-1.2264721 1.375848,-3.6866037 1.775174,-4.3504232 z"/>
<metadata id="license" xmlns:rdf="http://www.w3.org/1999/02/22-rdf-syntax-ns#" xmlns:cc="http://creativecommons.org/ns#"><cc:Work><cc:license rdf:resource="https://creativecommons.org/publicdomain/zero/1.0/"/></cc:Work></metadata>
</svg>