<?xml version="1.0" encoding="UTF-8"?>
<svg version="1.1" id="nightclub" width="180" height="180" viewBox="0 0 15 15" xmlns="http://www.w3.org/2000/svg">
<path d="M 4.3069669,1.7093912 A 3.4831254,3.4831254 0 0 1 6.9633801,2.9395344 2.612344,2.612344 0 0 0 5.6422538,2.5803221 2.612344,2.612344 0 0 0 3.0289729,5.1914875 v 0.00114 A 2.612344,2.612344 0 0 0 5.6411145,7.8049315 2.612344,2.612344 0 0 0 6.9645194,7.4444172 3.4831254,3.4831254 0 0 1 4.3084319,8.6756997 3.4831254,3.4831254 0 0 1 0.82487086,5.1932779 3.4831254,3.4831254 0 0 1 4.3069669,1.7093912 Z m 5.7278651,3.3448893 c 1.267122,0 4.434945,0.1584798 4.118164,0.4752604 l -3.801432,3.9596357 v 2.5343424 c 0,0.633562 1.900716,0.316748 1.900716,1.26709 H 7.817384 c 0,-0.950342 1.9005534,-0.633528 1.9005534,-1.26709 V 9.4891766 L 5.9166678,5.5295409 C 5.5998873,5.2127603 8.7677094,5.0542805 10.034832,5.0542805 Z m 0,0.6336263 c -1.5839033,0 -3.0094402,0.1583659 -3.0094402,0.1583659 l 0.4750977,0.4750976 h 5.0685225 l 0.47526,-0.4750976 c 0,0 -1.425537,-0.1583659 -3.00944,-0.1583659 z"/>
<metadata id="license" xmlns:rdf="http://www.w3.org/1999/02/22-rdf-syntax-ns#" xmlns:cc="http://creativecommons.org/ns#"><cc:Work><cc:license rdf:resource="https://creativecommons.org/publicdomain/zero/1.0/"/></cc:Work></metadata>
</svg>