<?xml version="1.0" encoding="UTF-8"?>
<svg version="1.1" id="toys" width="150" height="150" viewBox="0 0 39.6875 39.6875" xmlns="http://www.w3.org/2000/svg">
<path d="m 19.84375,1.9843752 -7.9375,6.6145834 h 15.875 z m -6.091101,7.9375 c -0.290104,0 -0.523482,0.2333778 -0.523482,0.5234818 v 12.181686 c 0,0.290104 0.233378,0.523999 0.523482,0.523999 h 12.182202 c 0.290104,0 0.523482,-0.233895 0.523482,-0.523999 V 10.445357 c 0,-0.290104 -0.233378,-0.5234818 -0.523482,-0.5234818 z m -7.9375,14.5520838 c -0.2901043,0 -0.5234822,0.233378 -0.5234822,0.523482 v 12.181685 c 0,0.290105 0.2333779,0.523999 0.5234822,0.523999 h 12.182202 c 0.290104,0 0.523482,-0.233894 0.523482,-0.523999 V 24.997441 c 0,-0.290104 -0.233378,-0.523482 -0.523482,-0.523482 z m 15.875,0 c -0.290104,0 -0.523482,0.233378 -0.523482,0.523482 v 12.181685 c 0,0.290105 0.233378,0.523999 0.523482,0.523999 h 12.182202 c 0.290104,0 0.523482,-0.233894 0.523482,-0.523999 V 24.997441 c 0,-0.290104 -0.233378,-0.523482 -0.523482,-0.523482 z"/>
<metadata id="license" xmlns:rdf="http://www.w3.org/1999/02/22-rdf-syntax-ns#" xmlns:cc="http://creativecommons.org/ns#"><cc:Work><cc:license rdf:resource="https://creativecommons.org/publicdomain/zero/1.0/"/></cc:Work></metadata>
</svg>