<?xml version="1.0" encoding="UTF-8"?>
<svg version="1.1" id="video" width="150" height="150" viewBox="0 0 39.6875 39.6875" xmlns="http://www.w3.org/2000/svg">
<path d="m 13.873572,2.858482 a 7.6561508,7.6561508 0 0 0 -7.6532801,7.657414 7.6561508,7.6561508 0 0 0 3.5692912,6.469373 h -0.039791 c -1.0993405,0 -1.984375,0.885034 -1.984375,1.984375 v 3.307291 l -5.2916666,-3.96875 v 17.197917 l 5.2916667,-3.96875 v 3.307292 c 0,1.09934 0.8850345,1.984375 1.984375,1.984375 H 33.563842 c 1.09934,0 1.984375,-0.885035 1.984375,-1.984375 v -15.875 c 0,-1.0721 -0.841903,-1.939936 -1.903243,-1.982308 a 7.6561508,7.6561508 0 0 0 3.568775,-6.47299 v -0.0031 a 7.6561508,7.6561508 0 0 0 -7.658963,-7.6527634 7.6561508,7.6561508 0 0 0 -7.653798,7.6574144 7.6561508,7.6561508 0 0 0 3.569291,6.469373 h -7.502901 a 7.6561508,7.6561508 0 0 0 3.565157,-6.470924 v -0.0031 A 7.6561508,7.6561508 0 0 0 13.873572,2.858482 Z m 3.152263,18.095537 10.583333,5.291666 -10.583333,6.614584 z"/>
<metadata id="license" xmlns:rdf="http://www.w3.org/1999/02/22-rdf-syntax-ns#" xmlns:cc="http://creativecommons.org/ns#"><cc:Work><cc:license rdf:resource="https://creativecommons.org/publicdomain/zero/1.0/"/></cc:Work></metadata>
</svg>