<?xml version="1.0" encoding="UTF-8"?>
<svg version="1.1" id="waterpark" width="150" height="150" viewBox="0 0 39.6875 39.6875" xmlns="http://www.w3.org/2000/svg">
<path d="M 1.9616374 2.6458333 C 1.6077314 2.6458333 1.3229167 2.930648 1.3229167 3.284554 L 1.3229167 5.8027466 L 1.3229167 8.7493368 L 1.3229167 33.114258 C 0.93634106 33.260851 0.49969858 33.34255 0 33.3375 L 0 39.6875 C 5.2916352 39.6875 3.9687656 34.925 6.6145833 34.925 C 9.2604006 34.925 7.9375313 39.6875 13.229167 39.6875 C 18.5208 39.6875 17.197933 34.925 19.84375 34.925 C 22.489568 34.925 21.1667 39.6875 26.458333 39.6875 C 31.749969 39.6875 30.427097 34.925 33.072917 34.925 C 35.718733 34.925 34.395864 39.6875 39.6875 39.6875 L 39.6875 33.3375 C 35.718774 33.3375 35.718733 26.9875 33.072917 26.9875 C 30.427097 26.9875 30.789962 33.381276 26.458333 33.3375 C 22.489609 33.3375 22.489568 26.9875 19.84375 26.9875 C 17.197933 26.9875 17.560793 33.381276 13.229167 33.3375 C 12.729716 33.3375 12.293177 33.236853 11.90625 33.061031 L 11.90625 9.2604167 C 21.166658 9.2604168 25.13543 26.458334 37.041667 26.458333 L 37.041667 22.489583 C 28.09158 22.489584 22.848652 6.4251735 12.952698 5.3485107 C 12.882468 5.3122925 12.802843 5.2916667 12.718087 5.2916667 L 11.90625 5.2916667 L 11.90625 3.284554 C 11.90625 2.930648 11.621435 2.6458333 11.267529 2.6458333 L 9.8991374 2.6458333 C 9.5452314 2.6458333 9.2604167 2.930648 9.2604167 3.284554 L 9.2604167 5.2916667 L 3.96875 5.2916667 L 3.96875 3.284554 C 3.96875 2.930648 3.6839353 2.6458333 3.3300293 2.6458333 L 1.9616374 2.6458333 z M 3.96875 9.2604167 L 9.2604167 9.2604167 L 9.2604167 11.90625 L 3.96875 11.90625 L 3.96875 9.2604167 z M 3.96875 14.552083 L 9.2604167 14.552083 L 9.2604167 17.197917 L 3.96875 17.197917 L 3.96875 14.552083 z M 3.96875 19.84375 L 9.2604167 19.84375 L 9.2604167 22.489583 L 3.96875 22.489583 L 3.96875 19.84375 z M 3.96875 25.135417 L 9.2604167 25.135417 L 9.2604167 29.840039 C 8.5072676 28.367431 7.8474609 26.9875 6.6145833 26.9875 C 5.3087672 26.9875 4.7349001 28.545278 3.96875 30.117542 L 3.96875 25.135417 z "/>
<metadata id="license" xmlns:rdf="http://www.w3.org/1999/02/22-rdf-syntax-ns#" xmlns:cc="http://creativecommons.org/ns#"><cc:Work><cc:license rdf:resource="https://creativecommons.org/publicdomain/zero/1.0/"/></cc:Work></metadata>
</svg>