<?xml version="1.0" encoding="UTF-8"?>
<svg version="1.1" id="checkerboard" width="96" height="96" viewBox="0 0 96 96" xmlns="http://www.w3.org/2000/svg">
<path d="M 0 0 L 0 24 L 24 24 L 24 0 L 0 0 z M 24 24 L 24 48 L 48 48 L 48 24 L 24 24 z M 48 24 L 72 24 L 72 0 L 48 0 L 48 24 z M 72 24 L 72 48 L 96 48 L 96 24 L 72 24 z M 72 48 L 48 48 L 48 72 L 72 72 L 72 48 z M 72 72 L 72 96 L 96 96 L 96 72 L 72 72 z M 48 72 L 24 72 L 24 96 L 48 96 L 48 72 z M 24 72 L 24 48 L 0 48 L 0 72 L 24 72 z "/>
<metadata id="license" xmlns:rdf="http://www.w3.org/1999/02/22-rdf-syntax-ns#" xmlns:cc="http://creativecommons.org/ns#"><cc:Work><cc:license rdf:resource="https://creativecommons.org/publicdomain/zero/1.0/"/></cc:Work></metadata>
</svg>