<?xml version="1.0" encoding="UTF-8"?>
<svg version="1.1" id="circles" width="120" height="120" viewBox="0 0 120 120.00001" xmlns="http://www.w3.org/2000/svg">
<path d="M 54.027344,0.51172 A 48,48 0 0 1 54.13086,0.966798 60,60 0 0 0 0.93750025,54.300783 48,48 0 0 1 0.49218775,54.201173 v 13.076172 a 48,48 0 0 1 0.4765625,-0.105469 60,60 0 0 0 53.10546875,52.880864 48,48 0 0 1 -0.09961,0.45898 h 13.035157 a 48,48 0 0 1 -0.09961,-0.45898 60,60 0 0 0 52.958974,-52.263676 V 52.853517 A 60,60 0 0 0 66.955079,0.873048 48,48 0 0 1 67.039063,0.51172 Z M 66.984376,12.970704 A 48,48 0 0 1 108.0625,54.232423 48,48 0 0 1 66.984376,12.970704 Z m -12.988282,0.05274 A 48,48 0 0 1 12.988282,54.226564 48,48 0 0 1 53.996094,13.023439 Z m 6.496094,19.697265 A 60,60 0 0 0 88.507813,60.738283 60,60 0 0 0 60.53125,88.683595 60,60 0 0 0 32.546876,60.69922 60,60 0 0 0 60.492188,32.720704 Z M 13.019532,67.203126 A 48,48 0 0 1 54,108 48,48 0 0 1 13.019532,67.203126 Z m 94.941408,0.04883 A 48,48 0 0 1 67.023438,107.9961 48,48 0 0 1 107.96094,67.251956 Z"/>
<metadata id="license" xmlns:rdf="http://www.w3.org/1999/02/22-rdf-syntax-ns#" xmlns:cc="http://creativecommons.org/ns#"><cc:Work><cc:license rdf:resource="https://creativecommons.org/publicdomain/zero/1.0/"/></cc:Work></metadata>
</svg>