<?xml version="1.0" encoding="UTF-8"?>
<svg version="1.1" id="hexgrid" width="120" height="120" viewBox="0 0 120 120.00001" xmlns="http://www.w3.org/2000/svg">
<path d="M 24,0 V 16.001052 L 0,32.002105 V 88.00015 l 24,15.9988 V 120 H 36 V 103.99895 L 48,95.999549 59.998047,88.00015 H 60 l 23.998047,15.9988 V 120 H 95.99805 v -16.00105 l 12,-7.999401 12,-7.999399 V 32.002105 h -0.002 L 95.99805,16.001052 V 0 H 83.998047 V 16.001052 L 60,32.002105 H 59.998 L 36,16.001052 V 0 Z m 6,28.001278 12,7.999399 12,7.999399 V 75.999924 L 30.001953,92.000977 6,75.999924 V 44.000076 Z m 59.998047,0 12.000003,7.999399 12,7.999399 V 75.999924 L 90,92.000977 65.998047,75.999924 V 44.000076 Z"/>
<metadata id="license" xmlns:rdf="http://www.w3.org/1999/02/22-rdf-syntax-ns#" xmlns:cc="http://creativecommons.org/ns#"><cc:Work><cc:license rdf:resource="https://creativecommons.org/publicdomain/zero/1.0/"/></cc:Work></metadata>
</svg>