<?xml version="1.0" encoding="UTF-8"?>
<svg version="1.1" id="wave" width="120" height="240" viewBox="0 0 120 240" xmlns="http://www.w3.org/2000/svg">
<path d="m 0,60 v 30 c 11.999952,0 6.000096,18 30,18 23.999902,0 18.000048,-18 30,-18 11.999954,0 6.000098,18 30,18 23.9999,0 18.00004,-18 30,-18 V 60 C 108.00004,60 109.64585,84.16545 90,84 72.000072,84 71.999954,60 60,60 48.000048,60 49.64585,84.16545 30,84 12.000072,84 11.999952,60 0,60 Z m 30,120 c -11.999964,0 -10.354131,24.16545 -30,24 v 24 c 23.999928,0 18.000036,-18 30,-18 11.999964,0 6.000072,18 30,18 23.999926,0 18.000032,-18 30,-18 11.99997,0 6.00007,18 30,18 v -24 c -17.99994,0 -18.00003,-24 -30,-24 -11.999968,0 -10.35413,24.16545 -30,24 -17.999946,0 -18.000036,-24 -30,-24 z"/>
<metadata id="license" xmlns:rdf="http://www.w3.org/1999/02/22-rdf-syntax-ns#" xmlns:cc="http://creativecommons.org/ns#"><cc:Work><cc:license rdf:resource="https://creativecommons.org/publicdomain/zero/1.0/"/></cc:Work></metadata>
</svg>