<?xml version="1.0" encoding="UTF-8"?>
<svg version="1.1" id="atm" width="180" height="180" viewBox="0 0 15 15" xmlns="http://www.w3.org/2000/svg">
<path d="M 0.64012638,2.5801923 C 0.28543513,2.5801923 0,2.861282 0,3.2105991 V 7.6244702 C 0,7.9737874 0.28543513,8.2550476 0.64012638,8.2550476 H 3.0053884 V 5.9278113 c 0,-0.4236523 0.3411231,-0.7647755 0.7647754,-0.7647755 H 9.6036014 V 3.2105991 c 0,-0.3493171 -0.2856052,-0.6304068 -0.640297,-0.6304068 z M 0.20871463,3.4573394 H 9.3947162 V 4.6910407 H 0.20871463 Z M 4.2939966,5.6868686 c -0.4236527,0 -0.7647754,0.3411228 -0.7647754,0.7647755 V 11.80456 c 0,0.423653 0.3411227,0.764776 0.7647754,0.764776 H 14.235225 C 14.658877,12.569336 15,12.228213 15,11.80456 V 6.4516441 C 15,6.0279914 14.658877,5.6868686 14.235225,5.6868686 Z m 0,0.7647755 h 1.1470779 c 0.2111382,0 0.3823024,0.1711644 0.3823024,0.3823024 0,0.2111381 -0.1711642,0.3823025 -0.3823024,0.3823025 -0.211138,0 -0.382473,-0.1711644 -0.382473,-0.3823025 L 4.6762991,7.216249 c 0.2111381,0 0.3823024,0.1713349 0.3823024,0.382473 0,0.2111381 -0.1711643,0.3823024 -0.3823024,0.3823024 -0.2111381,0 -0.3823025,-0.1711643 -0.3823025,-0.3823024 z m 4.970614,0 c 1.0558434,0 1.9118534,1.1982625 1.9118534,2.6764582 0,1.4781957 -0.85601,2.6764577 -1.9118534,2.6764577 -1.0558433,0 -1.9118533,-1.198262 -1.9118533,-2.6764577 0,-1.4781957 0.85601,-2.6764582 1.9118533,-2.6764582 z m 3.8235354,0 h 1.147079 V 7.598722 c 0,0.2111381 -0.171165,0.3823024 -0.382303,0.3823024 -0.211138,0 -0.382302,-0.1711643 -0.382302,-0.3823024 0,-0.2111381 0.171164,-0.382473 0.382302,-0.382473 L 13.47062,6.8339465 c 0,0.2111381 -0.171335,0.3823025 -0.382474,0.3823025 -0.211138,0 -0.382302,-0.1711644 -0.382302,-0.3823025 0,-0.211138 0.171164,-0.3823024 0.382302,-0.3823024 z M 9.2646106,7.598722 c -0.2470033,0 -0.4080971,0.083173 -0.521275,0.1911512 h 1.04255 C 9.672631,7.6818952 9.5116139,7.598722 9.2646106,7.598722 Z M 8.595496,7.9810244 C 8.560701,8.0506134 8.548351,8.1118396 8.53428,8.1721757 H 9.994941 C 9.9808698,8.1118396 9.9685199,8.0506136 9.9337249,7.9810244 Z M 8.4998351,8.3633269 V 8.5544781 H 10.029386 V 8.3633269 Z m 0,0.3824729 V 8.936951 H 10.029386 V 8.7457998 Z m 0,0.3823025 V 9.3192535 H 10.029386 V 9.1281023 Z m 0,0.3823024 -0.1911512,0.1911512 H 9.8382343 L 10.029386,9.5104047 Z M 8.1175327,9.8928773 c 0,0 0.027056,0.078275 0.077756,0.1911517 H 9.9337249 L 9.646913,9.8928773 Z M 4.6762991,10.27518 c 0.2111381,0 0.3823024,0.171164 0.3823024,0.382302 0,0.211139 -0.1711643,0.382474 -0.3823024,0.382474 l 0.3823024,0.382302 c 0,-0.211138 0.171335,-0.382302 0.382473,-0.382302 0.2111382,0 0.3823024,0.171164 0.3823024,0.382302 0,0.211138 -0.1711642,0.382302 -0.3823024,0.382302 H 4.2939966 v -1.147078 c 0,-0.211138 0.1711644,-0.382302 0.3823025,-0.382302 z m 3.6235178,0 c 0.035101,0.06546 0.058186,0.121563 0.1045279,0.191152 h 1.7340032 c 0.05093,-0.105454 0.08219,-0.191152 0.08219,-0.191152 z m 5.5531051,0 c 0.211138,0 0.382303,0.171164 0.382303,0.382302 v 1.147078 h -1.147079 c -0.211138,0 -0.382302,-0.171164 -0.382302,-0.382302 0,-0.211138 0.171164,-0.382302 0.382302,-0.382302 0.211139,0 0.382474,0.171164 0.382474,0.382302 l 0.382302,-0.382302 c -0.211138,0 -0.382302,-0.171335 -0.382302,-0.382474 0,-0.211138 0.171164,-0.382302 0.382302,-0.382302 z m -5.3022723,0.382302 c 0.060107,0.06974 0.1259296,0.134793 0.198654,0.191152 h 1.085862 c 0.076543,-0.05911 0.1435962,-0.123626 0.1942203,-0.191152 z"/>
<metadata id="license" xmlns:rdf="http://www.w3.org/1999/02/22-rdf-syntax-ns#" xmlns:cc="http://creativecommons.org/ns#"><cc:Work><cc:license rdf:resource="https://creativecommons.org/publicdomain/zero/1.0/"/></cc:Work></metadata>
</svg>