<?xml version="1.0" encoding="UTF-8"?>
<svg version="1.1" id="beergarden" width="180" height="180" viewBox="0 0 47.624999 47.625" xmlns="http://www.w3.org/2000/svg">
<path d="m 8.9362646,3.6960609 c -6.9502249,0 -8.9362281,3.0052879 -8.9362281,3.0052879 v 9.0165392 c 0.05719523,4.181924 0.73635461,8.290334 1.9862036,12.021155 1.2421049,4.312054 1.2421049,9.212082 0,13.524137 0,0 -2.004e-4,3.005287 6.9500245,3.005287 6.9502254,0 6.9500244,-3.005287 6.9500244,-3.005287 -1.242104,-4.31205 -1.242104,-9.212086 0,-13.524137 1.24985,-3.730821 1.929014,-7.839231 1.986206,-12.021155 V 6.7013488 c 0,0 -1.986005,-3.0052879 -8.9362304,-3.0052879 z m 0,2.3142002 C 11.432977,6.12961 15.909165,6.3932563 15.886289,8.2043304 V 14.214909 C 13.641169,15.29953 11.292192,15.807748 8.9362646,15.717888 6.5803389,15.807768 4.2313612,15.29953 1.9862401,14.214909 V 8.2043304 C 2.0353495,6.4292505 6.5835287,6.0576241 8.9362646,6.0102611 Z m 25.6377494,0.049946 c -3.383565,0 -6.593438,0.2235414 -9.299994,1.4226684 -2.706556,1.1991308 -4.838292,3.8997115 -4.838292,7.3873545 0,3.347428 0.971073,6.760642 2.929028,9.167045 -1.964771,2.407067 -2.939151,5.826637 -2.939151,9.17986 0,3.487643 2.131735,6.188226 4.838292,7.387357 2.706555,1.199131 5.916428,1.42267 9.299995,1.42267 2.356412,0 5.466613,-1.043154 8.199921,-3.811108 2.733308,-2.767957 4.851114,-7.285565 4.851114,-13.810291 l 0.01004,-0.724157 c 0,-6.524729 -2.117132,-11.042334 -4.850439,-13.8102882 -2.73328,-2.7679617 -5.844159,-3.8111124 -8.20057,-3.8111124 z m 0,4.4050119 c 0.906311,0 2.364954,0.609242 4.253837,2.522068 0.113045,0.114473 0.213334,0.281052 0.324622,0.404936 -0.485971,1.879706 -0.585097,4.108515 -1.764839,5.900569 -0.539069,0.818851 -1.132744,1.528012 -1.696,2.087436 -0.110299,-0.04503 -0.22226,-0.08747 -0.335421,-0.127555 -0.764277,-0.315048 -2.037684,-1.25192 -4.054743,-1.25192 -2.054309,0 -3.275265,0.986992 -3.950136,1.214802 -0.121183,0.04091 -0.240397,0.085 -0.358367,0.130929 -1.226891,-1.490645 -2.206893,-3.946003 -2.206893,-6.476253 0,-2.019161 0.588121,-2.623254 2.231863,-3.351505 1.643744,-0.728256 4.414194,-1.053504 7.556077,-1.053507 z m 6.862292,5.654235 c 0.870059,1.321632 1.839076,5.590029 1.839076,7.56215 l -0.01004,0.724158 c 0,1.972121 -0.958892,6.912706 -1.828952,8.234341 -0.495159,-1.042696 -0.675515,-3.670162 -1.304566,-4.625701 -0.537291,-0.816154 -1.550441,-3.259966 -2.175172,-3.964982 0.628722,-0.708034 1.634946,-2.703666 2.175172,-3.524279 0.62905,-0.955537 0.809408,-3.362994 1.304566,-4.405687 z m -5.748048,10.593761 c 0.561494,0.558506 1.152074,1.265379 1.689253,2.081361 1.179746,1.792051 1.278192,4.020864 1.764164,5.90057 -0.111283,0.123887 -0.210902,0.290458 -0.323947,0.404934 -1.888881,1.912829 -3.347526,2.522067 -4.253836,2.522067 -3.141881,0 -5.912337,-0.32525 -7.556076,-1.053504 -1.643742,-0.728251 -2.231866,-1.332345 -2.231866,-3.351508 0,-2.533615 0.98244,-4.992271 2.211618,-6.482325 0.123046,0.04821 0.247335,0.09429 0.373888,0.137003 0.67487,0.22781 1.89583,1.214803 3.950137,1.214803 2.017508,0 3.291198,-0.937082 4.055418,-1.251921 0.108218,-0.03834 0.215633,-0.07861 0.321247,-0.12148 z"/>
<metadata id="license" xmlns:rdf="http://www.w3.org/1999/02/22-rdf-syntax-ns#" xmlns:cc="http://creativecommons.org/ns#"><cc:Work><cc:license rdf:resource="https://creativecommons.org/publicdomain/zero/1.0/"/></cc:Work></metadata>
</svg>