<?xml version="1.0" encoding="UTF-8"?>
<svg version="1.1" id="beverages" width="150" height="150" viewBox="0 0 39.6875 39.6875" xmlns="http://www.w3.org/2000/svg">
<path d="M 5.933488 2.2970174 C 5.881349 2.2975977 5.8301999 2.3059376 5.7815592 2.3213053 C 5.6194236 2.3725472 5.4847549 2.5013195 5.4327433 2.677356 L 5.1113159 3.7666951 C 5.0280992 4.0483525 5.1877758 4.3418354 5.4694336 4.4250529 L 14.171228 6.9959554 L 15.756661 11.594641 L 13.355257 11.594641 L 13.040548 8.2863159 L 11.422042 8.2863159 C 11.068137 8.2863159 10.749822 8.5727208 10.783321 8.9250366 L 13.429154 36.751762 C 13.462654 37.104079 13.713972 37.390483 14.067875 37.390483 L 31.311267 37.390483 C 31.665173 37.390483 31.916488 37.104079 31.949988 36.751762 L 34.595821 8.9250366 C 34.629321 8.5727208 34.311006 8.2863159 33.9571 8.2863159 L 32.338595 8.2863159 L 32.023885 11.594641 L 18.079 11.594641 L 16.030546 5.6523682 C 16.016046 5.6102972 15.996275 5.5717682 15.973185 5.5360962 C 15.936694 5.348353 15.799961 5.1875423 15.603182 5.1294027 L 6.0916178 2.3192383 C 6.038809 2.3036343 5.9856266 2.2964372 5.933488 2.2970174 z M 13.565063 13.801225 L 16.517338 13.801225 L 23.270414 33.389176 C 23.366134 33.666834 23.666618 33.813558 23.944275 33.717839 L 25.017594 33.347319 C 25.295252 33.251599 25.441975 32.951116 25.346257 32.673458 L 18.839677 13.801225 L 31.814079 13.801225 L 29.833321 34.635095 C 29.799821 34.98741 29.548506 35.273816 29.1946 35.273816 L 16.184542 35.273816 C 15.830636 35.273816 15.57932 34.98741 15.545821 34.635095 L 13.565063 13.801225 z "/>
<metadata id="license" xmlns:rdf="http://www.w3.org/1999/02/22-rdf-syntax-ns#" xmlns:cc="http://creativecommons.org/ns#"><cc:Work><cc:license rdf:resource="https://creativecommons.org/publicdomain/zero/1.0/"/></cc:Work></metadata>
</svg>