<?xml version="1.0" encoding="UTF-8"?>
<svg version="1.1" id="books" width="150" height="150" viewBox="0 0 39.6875 39.6875" xmlns="http://www.w3.org/2000/svg">
<path d="m 25.648564,5.1821126 c -0.189632,-0.0017 -0.380031,0.00684 -0.570508,0.026355 -0.507939,0.05204 -1.018473,0.1830664 -1.523421,0.4123779 C 22.11722,6.2736159 20.914847,7.567502 19.84375,9.6262858 18.772653,7.567502 17.57028,6.2736159 16.132865,5.6208455 15.627918,5.391534 15.117383,5.2605115 14.609444,5.2084676 c -0.190477,-0.01952 -0.380876,-0.027518 -0.570508,-0.025838 -1.32742,0.0118 -2.625687,0.5183549 -3.779097,1.1746053 C 8.5022607,7.3572357 6.8617123,8.7465916 5.3144043,9.8376424 3.767096,10.928693 2.3460821,11.642183 1.3223999,11.642183 A 1.322915,1.322915 0 0 0 0,12.964583 1.322915,1.322915 0 0 0 0.01601969,13.10721 1.322915,1.322915 0 0 0 0,13.229167 v 19.40295 0.4408 0.4408 c 0,0.488596 0.39352044,0.882117 0.8821167,0.882117 H 19.839099 a 1.322915,1.322915 0 0 0 0.0062,5.16e-4 1.322915,1.322915 0 0 0 0.0057,-5.16e-4 h 18.954398 c 0.488597,0 0.882117,-0.393521 0.882117,-0.882117 v -0.4408 -0.4408 -19.40295 a 1.322915,1.322915 0 0 0 -0.01602,-0.121957 1.322915,1.322915 0 0 0 0.01602,-0.142627 1.322915,1.322915 0 0 0 -1.3224,-1.3224 c -1.023682,0 -2.444697,-0.71349 -3.992004,-1.8045406 C 32.825786,8.7465916 31.185238,7.3572357 29.427661,6.3572347 28.274251,5.7009845 26.975984,5.1939811 25.648564,5.1821126 Z m -0.04858,2.6292969 c 0.725735,-0.014376 1.529598,0.2833966 2.519226,0.84646 1.439456,0.8190024 3.051106,2.1592115 4.728393,3.3419145 1.307713,0.922105 2.676247,1.796701 4.193543,2.137338 v 17.322457 c -0.797734,-0.306097 -1.708561,-0.837037 -2.668054,-1.513603 -1.54731,-1.091051 -3.187858,-2.480407 -4.945435,-3.480408 -1.318184,-0.75 -2.825794,-1.304899 -4.349605,-1.148767 -0.507939,0.05204 -1.018473,0.183066 -1.523421,0.412378 -0.875787,0.39772 -1.663737,1.03513 -2.388485,1.936833 V 13.209013 C 22.408199,9.8787527 23.684505,8.4668007 24.648625,8.0289673 24.956223,7.889278 25.270108,7.8179441 25.599988,7.8114095 Z m -11.512476,5.168e-4 c 0.32988,0.00653 0.643765,0.077352 0.951363,0.217041 0.964114,0.4378317 2.240434,1.8498293 3.482475,5.1800457 v 14.456999 c -0.724748,-0.901703 -1.512698,-1.539113 -2.388485,-1.936833 -0.504947,-0.229312 -1.015482,-0.360334 -1.523421,-0.412378 -0.190477,-0.01952 -0.380876,-0.02752 -0.570508,-0.02584 -1.32742,0.0118 -2.625687,0.518355 -3.779097,1.174605 -1.7575783,1.000001 -3.3981267,2.389357 -4.9454347,3.480408 -0.9594931,0.676566 -1.8703198,1.207506 -2.6680542,1.513603 V 14.137122 C 4.1636459,13.796485 5.5321815,12.921889 6.8398926,11.999784 8.5171809,10.817081 10.12883,9.4768719 11.568286,8.6578695 12.557914,8.0948061 13.361777,7.7975503 14.087512,7.8119263 Z m 0,20.1083337 c 0.32988,0.0065 0.643764,0.07735 0.951363,0.217041 0.796992,0.361937 1.80701,1.387276 2.834969,3.612699 H 7.3385701 c 1.4975146,-1.087099 2.9336219,-2.246363 4.2297159,-2.983797 0.989629,-0.563063 1.79349,-0.860319 2.519226,-0.845943 z m 11.512476,0 c 0.725736,-0.01438 1.529597,0.28288 2.519226,0.845943 1.296094,0.737434 2.732202,1.896698 4.229716,2.983797 H 21.813139 c 1.028063,-2.225865 2.038422,-3.25073 2.835486,-3.612699 0.307599,-0.13969 0.621483,-0.210507 0.951363,-0.217041 z"/>
<metadata id="license" xmlns:rdf="http://www.w3.org/1999/02/22-rdf-syntax-ns#" xmlns:cc="http://creativecommons.org/ns#"><cc:Work><cc:license rdf:resource="https://creativecommons.org/publicdomain/zero/1.0/"/></cc:Work></metadata>
</svg>