<?xml version="1.0" encoding="UTF-8"?>
<svg version="1.1" id="butcher" width="150" height="150" viewBox="0 0 39.6875 39.6875" xmlns="http://www.w3.org/2000/svg">
<path d="m 33.31267,4.2661725 a 4.163341,4.163341 0 0 0 -5.75323,-1.248231 4.163341,4.163341 0 0 0 -1.24966,5.752919 L 21.786241,11.679487 C 16.913308,7.4561825 10.447555,9.6979285 3.7806685,13.986761 3.062046,14.449053 2.366374,14.918875 1.6987328,15.397323 l 0.2610287,0.89994 a 3.4273593,3.2959177 57.259058 0 1 0.2186641,-0.159646 3.4273593,3.2959177 57.259058 0 1 4.6259987,1.0994 3.4273593,3.2959177 57.259058 0 1 0.5543182,2.119498 3.4273593,3.2959177 57.259058 0 1 1.6972339,1.382148 3.4273593,3.2959177 57.259058 0 1 -0.9165775,4.665724 l -0.0013,8.38e-4 a 3.4273593,3.2959177 57.259058 0 1 -0.029961,0.01742 3.4273593,3.2959177 57.259058 0 1 0.5564715,0.665736 3.4273593,3.2959177 57.259058 0 1 -0.9168575,4.665289 3.4273593,3.2959177 57.259058 0 1 -0.3740955,4.220453 l 0.6832586,2.357292 c 2.621377,-0.752667 5.380389,-2.189671 8.175177,-3.986715 l 0.0061,-0.0039 c 6.661999,-4.287741 11.377786,-9.238901 9.561626,-15.418401 l 4.523973,-2.908906 a 4.163341,4.163341 0 0 1 2.8e-4,4.34e-4 4.163341,4.163341 0 0 0 5.752919,1.249659 l 0.0017,-0.0011 a 4.163341,4.163341 0 0 0 1.247951,-5.753664 4.163341,4.163341 0 0 0 -3.924765,-1.8863525 4.163341,4.163341 0 0 0 -0.08924,-4.356279 z"/>
<metadata id="license" xmlns:rdf="http://www.w3.org/1999/02/22-rdf-syntax-ns#" xmlns:cc="http://creativecommons.org/ns#"><cc:Work><cc:license rdf:resource="https://creativecommons.org/publicdomain/zero/1.0/"/></cc:Work></metadata>
</svg>