<?xml version="1.0" encoding="UTF-8"?>
<svg version="1.1" id="car-wash" width="180" height="180" viewBox="0 0 15 15" xmlns="http://www.w3.org/2000/svg">
<path d="M 5.3333333 1.1653646 C 5.1729405 1.3892154 4.5514323 2.2236997 4.5514323 2.6306966 C 4.5514323 3.2004946 4.9724627 3.4243164 5.3333333 3.4243164 C 5.6942046 3.4243164 6.1152344 3.2004946 6.1152344 2.6306966 C 6.1152344 2.2440588 5.5137692 1.3892154 5.3333333 1.1653646 z M 7.5 1.1653646 C 7.3396071 1.3892154 6.718099 2.2236997 6.718099 2.6306966 C 6.718099 3.2004946 7.139129 3.4243164 7.5 3.4243164 C 7.8608716 3.4243164 8.281901 3.2004946 8.281901 2.6306966 C 8.281901 2.2440588 7.6804358 1.3892154 7.5 1.1653646 z M 9.6666667 1.1653646 C 9.5062738 1.3892154 8.8847656 2.2236997 8.8847656 2.6306966 C 8.8847656 3.2004946 9.305796 3.4243164 9.6666667 3.4243164 C 10.027538 3.4243164 10.448568 3.2004946 10.448568 2.6306966 C 10.448568 2.2440588 9.8471025 1.3892154 9.6666667 1.1653646 z M 4.281901 3.1726888 C 4.1215082 3.3965396 3.5 4.2308612 3.5 4.6378581 C 3.5 5.2076561 3.9210304 5.4314779 4.281901 5.4314779 C 4.6427723 5.4314779 5.0638021 5.2076561 5.0638021 4.6378581 C 5.0638021 4.2512203 4.4623369 3.3965396 4.281901 3.1726888 z M 6.4485677 3.1726888 C 6.2881749 3.3965396 5.6666667 4.2308612 5.6666667 4.6378581 C 5.6666667 5.2076561 6.0876971 5.4314779 6.4485677 5.4314779 C 6.8094389 5.4314779 7.2304688 5.2076561 7.2304688 4.6378581 C 7.2304688 4.2512203 6.6290035 3.3965396 6.4485677 3.1726888 z M 8.6152344 3.1726888 C 8.4548414 3.3965396 7.8333333 4.2308612 7.8333333 4.6378581 C 7.8333333 5.2076561 8.2543633 5.4314779 8.6152344 5.4314779 C 8.9761061 5.4314779 9.3971354 5.2076561 9.3971354 4.6378581 C 9.3971354 4.2512203 8.7956702 3.3965396 8.6152344 3.1726888 z M 10.781901 3.1726888 C 10.621508 3.3965396 10 4.2308612 10 4.6378581 C 10 5.2076561 10.42103 5.4314779 10.781901 5.4314779 C 11.142773 5.4314779 11.563802 5.2076561 11.563802 4.6378581 C 11.563802 4.2512203 10.962337 3.3965396 10.781901 3.1726888 z M 4.7830404 6 C 4.6074106 6 4.4446892 6.092076 4.3543294 6.2426758 L 3 8.5 L 2.1464844 9.3535156 C 2.0527146 9.4472854 2 9.5744216 2 9.7070312 L 2 13.5 C 2 13.7761 2.2238606 14 2.5 14 L 4 14 C 4.2761394 14 4.5 13.7761 4.5 13.5 L 4.5 13 L 10.5 13 L 10.5 13.5 C 10.5 13.7761 10.7239 14 11 14 L 12.5 14 C 12.7761 14 13 13.7761 13 13.5 L 13 9.7070312 C 13 9.5744216 12.947378 9.4472854 12.853678 9.3535156 L 12 8.5 L 10.645671 6.2426758 C 10.555371 6.092076 10.392558 6 10.21696 6 L 4.7830404 6 z M 5.0662435 7 L 9.9337565 7 L 11.133789 9 L 3.8662109 9 L 5.0662435 7 z M 3.2900391 10.065918 C 3.31254 10.065226 3.335683 10.067127 3.3588867 10.071777 L 5.1783854 10.43571 C 5.3653546 10.47311 5.5 10.637262 5.5 10.827962 L 5.5 11.200033 C 5.5 11.365729 5.3657118 11.5 5.2000326 11.5 L 3.2999674 11.5 C 3.1342782 11.5 3 11.365729 3 11.200033 L 3 10.365885 C 3 10.200251 3.1325304 10.070765 3.2900391 10.065918 z M 11.601888 10.087728 C 11.8168 10.088294 12 10.263162 12 10.487956 L 12 11.200033 C 12 11.365729 11.865729 11.5 11.700033 11.5 L 9.7999674 11.5 C 9.6342782 11.5 9.5 11.365729 9.5 11.200033 L 9.5 10.745931 C 9.5 10.602931 9.6009917 10.479823 9.7412109 10.451823 L 11.521647 10.095703 C 11.548717 10.090289 11.575495 10.087658 11.601888 10.087728 z "/>
<metadata id="license" xmlns:rdf="http://www.w3.org/1999/02/22-rdf-syntax-ns#" xmlns:cc="http://creativecommons.org/ns#"><cc:Work><cc:license rdf:resource="https://creativecommons.org/publicdomain/zero/1.0/"/></cc:Work></metadata>
</svg>