<?xml version="1.0" encoding="UTF-8"?>
<svg version="1.1" id="chemist" width="150" height="150" viewBox="0 0 39.6875 39.6875" xmlns="http://www.w3.org/2000/svg">
<path d="M 7.9349163,11.90625 A 7.9375,7.9375 0 0 0 7.580805e-8,19.845301 7.9375,7.9375 0 0 0 7.9385336,27.78125 7.9375,7.9375 0 0 0 8.3426433,27.766264 c 0.039804,0.0095 0.081228,0.01499 0.1240235,0.01499 H 31.220833 c 0.0428,0 0.08422,-0.0055 0.124024,-0.01499 a 7.9375,7.9375 0 0 0 0.406177,0.01499 7.9375,7.9375 0 0 0 7.936466,-7.9375 v -0.0036 a 7.9375,7.9375 0 0 0 -7.940084,-7.933883 7.9375,7.9375 0 0 0 -0.403076,0.01499 c -0.03965,-0.0094 -0.08089,-0.01499 -0.123507,-0.01499 H 8.4666668 c -0.042841,0 -0.084182,0.006 -0.1240235,0.0155 a 7.9375,7.9375 0 0 0 -0.407727,-0.0155 z M 19.84375,13.229167 H 31.747933 31.75 a 6.6145825,6.6145825 0 0 1 6.614583,6.611483 v 0.0031 a 6.6145825,6.6145825 0 0 1 -6.614066,6.614584 6.6145825,6.6145825 0 0 0 -5.17e-4,0 H 19.84375 a 2.6458347,6.6145825 0 0 0 -5.17e-4,0 2.6458347,6.6145825 0 0 1 -2.645316,-6.614584 v -0.0031 a 2.6458347,6.6145825 0 0 1 2.645833,-6.611483 z"/>
<metadata id="license" xmlns:rdf="http://www.w3.org/1999/02/22-rdf-syntax-ns#" xmlns:cc="http://creativecommons.org/ns#"><cc:Work><cc:license rdf:resource="https://creativecommons.org/publicdomain/zero/1.0/"/></cc:Work></metadata>
</svg>