<?xml version="1.0" encoding="UTF-8"?>
<svg version="1.1" id="clothes" width="150" height="150" viewBox="0 0 39.6875 39.6875" xmlns="http://www.w3.org/2000/svg">
<path d="M 0.72760417,1.3229167 C 0.32451227,1.3229167 0,1.647429 0,2.0505209 V 15.147395 C 0,15.550488 0.32451227,15.875 0.72760417,15.875 H 7.9375 v 21.960416 c 0,0.293158 0.2360089,0.529167 0.5291667,0.529167 H 31.220833 c 0.293158,0 0.529167,-0.236009 0.529167,-0.529167 V 15.875 h 7.209896 c 0.403091,0 0.727604,-0.324512 0.727604,-0.727605 V 2.0505209 c 0,-0.4030919 -0.324513,-0.7276042 -0.727604,-0.7276042 h -7.739063 -3.56309 A 7.9375,7.9375 0 0 1 19.844784,7.9375001 7.9375,7.9375 0 0 1 12.029757,1.3229167 H 8.4666667 Z"/>
<metadata id="license" xmlns:rdf="http://www.w3.org/1999/02/22-rdf-syntax-ns#" xmlns:cc="http://creativecommons.org/ns#"><cc:Work><cc:license rdf:resource="https://creativecommons.org/publicdomain/zero/1.0/"/></cc:Work></metadata>
</svg>