<?xml version="1.0" encoding="UTF-8"?>
<svg version="1.1" id="doityourself" width="150" height="150" viewBox="0 0 39.6875 39.6875" xmlns="http://www.w3.org/2000/svg">
<path d="m 4.6302086,1.3229168 c -1.4657889,0 -2.6458334,1.1800445 -2.6458334,2.6458333 v 9.2604169 c 0,1.465789 1.1800445,2.645833 2.6458334,2.645833 H 28.442709 c 1.465788,0 2.645833,-1.180044 2.645833,-2.645833 v -2.645834 h 1.322917 c 0.793749,0 1.322916,0.529168 1.322916,1.322917 v 5.291667 l -17.197916,5.291666 v 3.96875 h -2.645834 v 2.645834 h 1.322917 v 9.260416 h 6.614583 v -9.260416 h 1.322917 V 26.458333 H 20.505209 V 25.135417 L 37.703125,19.84375 V 9.2604169 c 0,-1.3229134 -1.322918,-2.6458334 -2.645833,-2.6458335 h -3.96875 V 3.9687501 c 0,-1.4657888 -1.180045,-2.6458333 -2.645833,-2.6458333 z"/>
<metadata id="license" xmlns:rdf="http://www.w3.org/1999/02/22-rdf-syntax-ns#" xmlns:cc="http://creativecommons.org/ns#"><cc:Work><cc:license rdf:resource="https://creativecommons.org/publicdomain/zero/1.0/"/></cc:Work></metadata>
</svg>