<?xml version="1.0" encoding="UTF-8"?>
<svg version="1.1" id="drycleaning" width="150" height="150" viewBox="0 0 39.6875 39.6875" xmlns="http://www.w3.org/2000/svg">
<path d="m 19.84375,5.2916667 c -3.968742,10e-8 -3.96875,0.2645908 -3.96875,3.96875 h 1.322917 c 0,-2.6458281 6e-6,-2.6458333 2.645833,-2.6458333 2.645828,0 2.645833,3.8e-6 2.645833,1.8520833 0,1.322915 -3.96875,2.1166713 -3.96875,3.4395833 v 1.322917 L 0,22.489584 v 2.645833 H 11.90625 V 35.71875 H 29.104167 V 25.135417 H 39.6875 V 22.489584 L 21.166667,13.229167 V 11.90625 c 0,-1.058331 2.645833,-1.32292 2.645833,-3.9687503 0,-2.645827 -1.322922,-2.6458329 -3.96875,-2.645833 z m 0,10.5833333 14.552083,6.614584 H 29.104167 V 21.166667 H 11.90625 v 1.322917 H 5.2916667 Z"/>
<metadata id="license" xmlns:rdf="http://www.w3.org/1999/02/22-rdf-syntax-ns#" xmlns:cc="http://creativecommons.org/ns#"><cc:Work><cc:license rdf:resource="https://creativecommons.org/publicdomain/zero/1.0/"/></cc:Work></metadata>
</svg>