<?xml version="1.0" encoding="UTF-8"?>
<svg version="1.1" id="huntingstand" width="150" height="150" viewBox="0 0 39.6875 39.6875" xmlns="http://www.w3.org/2000/svg">
<path d="M 13.49375 0 C 12.614278 0 11.90625 0.70802792 11.90625 1.5875 L 11.90625 5.2916667 L 4.4798299 5.2916667 C 4.1967051 5.2916667 3.96875 5.5196218 3.96875 5.8027466 L 3.96875 6.1035034 C 3.96875 6.3866282 4.1967051 6.6145833 4.4798299 6.6145833 L 11.90625 6.6145833 L 11.90625 18.25625 C 11.90625 19.010024 12.426538 19.637826 13.128914 19.801892 L 7.6191732 36.696468 C 7.3919352 37.393243 7.7698913 38.137347 8.4666667 38.364583 C 9.1634421 38.591822 9.9075437 38.213865 10.134782 37.51709 L 10.691337 35.810217 L 19.08514 25.263057 L 27.991056 36.453589 L 28.337805 37.51709 C 28.565044 38.213865 29.309146 38.591822 30.00592 38.364583 C 30.702697 38.137347 31.080652 37.393243 30.853414 36.696468 L 25.334888 19.77502 C 25.986408 19.577344 26.458333 18.974026 26.458333 18.25625 L 26.458333 1.5875 C 26.458333 0.70802792 25.750305 0 24.870833 0 L 13.49375 0 z M 14.552083 2.6458333 L 23.8125 2.6458333 C 24.545394 2.6458333 25.135417 3.2358556 25.135417 3.96875 L 25.135417 6.6145833 C 25.135417 7.3474777 24.545394 7.9375 23.8125 7.9375 L 19.33267 7.9375 C 19.615795 7.9375 19.84375 7.7095449 19.84375 7.4264201 L 19.84375 7.1256632 C 19.84375 6.8425385 19.615795 6.6145833 19.33267 6.6145833 L 16.686837 6.6145833 C 16.969962 6.6145833 17.197917 6.3866282 17.197917 6.1035034 L 17.197917 5.8027466 C 17.197917 5.5196218 16.969962 5.2916667 16.686837 5.2916667 L 13.229167 5.2916667 L 13.229167 3.96875 C 13.229167 3.2358556 13.819189 2.6458333 14.552083 2.6458333 z M 19.182292 3.96875 A 0.66145831 0.66145831 0 0 0 18.520833 4.6302083 A 0.66145831 0.66145831 0 0 0 19.182292 5.2916667 A 0.66145831 0.66145831 0 0 0 19.84375 4.6302083 A 0.66145831 0.66145831 0 0 0 20.505208 5.2916667 A 0.66145831 0.66145831 0 0 0 21.166667 4.6302083 L 21.166667 4.6296916 A 0.66145831 0.66145831 0 0 0 20.505208 3.96875 A 0.66145831 0.66145831 0 0 0 19.84375 4.6296916 A 0.66145831 0.66145831 0 0 0 19.182292 3.96875 z M 13.229167 6.6145833 L 13.740247 6.6145833 C 13.526913 6.6145833 13.344686 6.7438543 13.267924 6.928776 C 13.243494 6.8279535 13.229167 6.7231259 13.229167 6.6145833 z M 16.04915 19.84375 L 22.12113 19.84375 L 19.08514 23.658504 L 16.04915 19.84375 z M 22.813595 20.578589 L 27.104289 33.735409 L 19.723344 24.461039 L 22.813595 20.578589 z M 15.571143 20.847306 L 18.446936 24.461039 L 11.578105 33.092037 L 15.571143 20.847306 z "/>
<metadata id="license" xmlns:rdf="http://www.w3.org/1999/02/22-rdf-syntax-ns#" xmlns:cc="http://creativecommons.org/ns#"><cc:Work><cc:license rdf:resource="https://creativecommons.org/publicdomain/zero/1.0/"/></cc:Work></metadata>
</svg>