<?xml version="1.0" encoding="UTF-8"?>
<svg version="1.1" id="kiosk" width="150" height="150" viewBox="0 0 39.6875 39.6875" xmlns="http://www.w3.org/2000/svg">
<path d="m 19.684999,4.85e-7 c -0.296823,0 -0.544903,0.201311145 -0.615156,0.475629945 v 6.2004e-4 c -0.01291,0.0506249 -0.01984,0.1039926 -0.01984,0.15875004 V 2.5400004 7.9375007 L 7.9374997,17.462501 V 19.05 h 1.5874996 v 19.816465 c 0,0.455022 0.366015,0.821035 0.8210347,0.821035 h 1.532931 15.92957 1.532929 c 0.455022,0 0.821035,-0.366013 0.821035,-0.821035 V 19.05 H 31.75 V 17.462501 L 20.637499,7.9375007 v -4.70793 c 1.639788,0.2063287 1.952471,0.9435517 4.1275,1.2154297 0.349073,0.043633 0.635,-0.2832108 0.635,-0.635 v -1.905 c 0,-0.3517897 -0.28321,-0.6349999 -0.635,-0.6349999 -2.379103,3e-7 -2.529904,-1.11396055 -4.626694,-1.25511714 C 20.094545,0.00541136 20.049185,4.65e-7 20.002499,4.65e-7 Z M 12.7,19.05 H 26.9875 V 30.1625 H 12.7 Z"/>
<metadata id="license" xmlns:rdf="http://www.w3.org/1999/02/22-rdf-syntax-ns#" xmlns:cc="http://creativecommons.org/ns#"><cc:Work><cc:license rdf:resource="https://creativecommons.org/publicdomain/zero/1.0/"/></cc:Work></metadata>
</svg>