<?xml version="1.0" encoding="UTF-8"?>
<svg version="1.1" id="marketplace" width="150" height="150" viewBox="0 0 39.6875 39.6875" xmlns="http://www.w3.org/2000/svg">
<path d="m 3.96875,2.6458337 v 6.614583 a 2.6458333,2.6458333 0 0 0 0,5.17e-4 A 2.6458333,2.6458333 0 0 0 6.6151001,11.906251 2.6458333,2.6458333 0 0 0 7.9375,11.55175 V 25.135417 H 3.96875 v 11.90625 h 31.75 V 25.135417 H 31.75 V 11.551234 a 2.6458333,2.6458333 0 0 1 5.17e-4,5.16e-4 2.6458333,2.6458333 0 0 0 1.322916,0.354501 2.6458333,2.6458333 0 0 0 2.645317,-2.6458343 v -0.00103 -6.61355 z M 5.2916667,3.9687504 H 7.9375 v 5.2911503 5.16e-4 A 1.3229166,1.3229166 0 0 1 6.6145833,10.583334 1.3229166,1.3229166 0 0 1 5.2916667,9.2609337 a 1.3229166,1.3229166 0 0 0 0,-5.17e-4 z m 5.2916663,0 h 2.645834 v 5.2911503 5.16e-4 a 1.3229166,1.3229166 0 0 1 -1.322917,1.3229173 1.3229166,1.3229166 0 0 1 -1.322917,-1.3224003 1.3229166,1.3229166 0 0 1 0,-5.17e-4 z m 5.291667,0 h 2.645833 v 5.2911503 5.16e-4 A 1.3229166,1.3229166 0 0 1 17.197917,10.583334 1.3229166,1.3229166 0 0 1 15.875,9.2609337 a 1.3229166,1.3229166 0 0 1 0,-5.17e-4 z m 5.291667,0 H 23.8125 v 5.2916663 5.17e-4 a 1.3229166,1.3229166 0 0 1 -1.322917,1.3229173 1.3229166,1.3229166 0 0 1 -1.322916,-1.3224003 1.3229166,1.3229166 0 0 1 0,-0.00103 z m 5.291666,0 h 2.645834 v 5.2916663 5.17e-4 a 1.3229166,1.3229166 0 0 1 -1.322917,1.3229173 1.3229166,1.3229166 0 0 1 -1.322917,-1.3224003 1.3229166,1.3229166 0 0 1 0,-0.00103 z m 5.291667,0 h 2.645833 v 5.2911503 5.16e-4 A 1.3229166,1.3229166 0 0 1 33.072917,10.583334 1.3229166,1.3229166 0 0 1 31.75,9.2609337 a 1.3229166,1.3229166 0 0 1 0,-5.17e-4 z M 14.552083,9.2609337 a 2.6458333,2.6458333 0 0 0 2.64635,2.6453173 2.6458333,2.6458333 0 0 0 2.645317,-2.6453173 2.6458333,2.6458333 0 0 0 2.64635,2.6453173 2.6458333,2.6458333 0 0 0 2.645317,-2.6453173 2.6458333,2.6458333 0 0 0 2.64635,2.6453173 2.6458333,2.6458333 0 0 0 1.3224,-0.354501 V 25.135417 H 10.583333 V 11.551234 a 2.6458333,2.6458333 0 0 1 5.17e-4,5.16e-4 2.6458333,2.6458333 0 0 0 1.322917,0.354501 2.6458333,2.6458333 0 0 0 2.645316,-2.6453173 z"/>
<metadata id="license" xmlns:rdf="http://www.w3.org/1999/02/22-rdf-syntax-ns#" xmlns:cc="http://creativecommons.org/ns#"><cc:Work><cc:license rdf:resource="https://creativecommons.org/publicdomain/zero/1.0/"/></cc:Work></metadata>
</svg>