<?xml version="1.0" encoding="iso-8859-1"?>
<!-- Uploaded to: SVG Repo, www.svgrepo.com, Generator: SVG Repo Mixer Tools -->
<svg fill="#000000" height="800px" width="800px" version="1.1" id="Layer_1" xmlns="http://www.w3.org/2000/svg" xmlns:xlink="http://www.w3.org/1999/xlink" 
	 viewBox="0 0 512 512" xml:space="preserve">
<g>
	<g>
		<path d="M256,4C53.6,4,0,144.8,0,219.6c0,51.6,30.4,89.2,72,89.2c4.4,0,9.2,0,14-0.4c26.4-1.2,57.2-4.8,87.2-8.8
			c0.8,0,1.2,0,2-0.4c-2.8,16.8-8.4,44-18.8,86.4c-10,39.6-6.8,70.4,9.6,90.8c16.4,20.8,46.4,31.6,88.8,31.6h1.2
			c42.4,0,72.4-10.8,88.8-31.6c16-20.4,19.2-51.2,9.6-90.8c-10.4-42-16-69.6-18.8-86c0.8,0,2,0.4,2.8,0.4c30.4,4,61.6,8,88,8.8
			c4.8,0,9.2,0.4,13.6,0.4c41.6,0,72-37.6,72-89.2C512,144.8,458.4,4,256,4z"/>
	</g>
</g>
</svg>