<?xml version="1.0" encoding="UTF-8"?>
<svg version="1.1" id="nursinghome" width="150" height="150" viewBox="0 0 39.6875 39.6875" xmlns="http://www.w3.org/2000/svg">
<path d="M 33.488912 0.13384196 C 31.813942 0.13384196 30.456022 1.4917915 30.456022 3.1667318 L 30.456022 9.2325114 L 20.395138 0.40721029 C 20.10854 0.10302261 19.629894 0.087872201 19.324919 0.37362061 L 19.291846 0.40721029 L 0.33951416 16.975191 C 0.053220446 17.280774 0.06906804 17.760667 0.37465413 18.04696 C 0.5125245 18.176126 0.69372175 18.24899 0.88263346 18.251599 L 3.1667318 18.284155 L 3.1667318 38.795048 C 3.1667318 39.213783 3.5060902 39.553658 3.924825 39.553658 L 13.346989 39.553658 C 8.9598693 39.384601 5.4513496 35.782083 5.4404948 31.353642 C 5.4451448 29.487444 6.0950769 27.680873 7.2801758 26.239225 C 7.6578224 25.770199 8.084974 25.343048 8.5539998 24.965401 C 9.9956475 23.780302 11.802737 23.13037 13.668933 23.12572 C 18.205344 23.13684 21.876701 26.817231 21.876701 31.353642 C 21.847791 33.841904 20.705206 36.186528 18.763196 37.742399 C 17.414115 38.842437 15.748969 39.475777 14.016199 39.553658 L 35.763192 39.553658 C 36.181926 39.553658 36.521285 39.213783 36.521285 38.795048 L 36.521285 18.327563 L 38.791947 18.327563 C 39.210682 18.328963 39.55123 17.990272 39.552625 17.571537 C 39.553262 17.378015 39.479846 17.191815 39.347469 17.050639 L 39.347469 17.050122 L 36.521285 14.566553 L 36.521285 3.1667318 C 36.521285 1.4917915 35.163882 0.13384196 33.488912 0.13384196 z M 26.66814 9.2366455 C 28.342885 9.2366455 29.700513 10.59479 29.700513 12.269535 C 29.700513 13.944282 28.342885 15.301908 26.66814 15.301908 C 24.993393 15.301908 23.635767 13.944282 23.635767 12.269535 C 23.635767 10.59479 24.993393 9.2366455 26.66814 9.2366455 z M 14.545365 13.294796 C 14.74725 13.296262 14.950151 13.358024 15.124658 13.482381 L 22.220349 18.415413 L 23.474019 19.163171 C 23.475919 19.164171 23.477387 19.165272 23.479187 19.166272 C 24.319794 19.630244 24.625287 20.687795 24.161316 21.528402 L 22.382096 24.561292 C 20.988564 22.762819 19.076043 21.435927 16.903361 20.76049 L 18.399394 18.233512 L 14.65957 15.625403 L 11.141956 19.082556 C 10.788164 19.308176 10.331863 19.291699 9.9952555 19.041215 C 9.547255 18.708044 9.4538294 18.074832 9.7869995 17.626831 L 13.83068 13.583667 C 14.027528 13.390914 14.285799 13.29291 14.545365 13.294796 z M 22.645129 24.90494 L 27.678931 24.90494 C 28.303221 24.889777 28.873115 25.258626 29.114502 25.834599 L 34.148303 35.943026 L 34.087842 35.84174 C 34.461849 36.595416 34.15422 37.509985 33.400545 37.883993 C 32.646869 38.258 31.7323 37.950372 31.358293 37.196696 L 26.728601 27.937313 L 24.18147 27.937313 C 23.828891 26.853298 23.310863 25.830457 22.645129 24.90494 z M 13.892175 26.480554 C 12.901535 26.480554 11.910769 26.797822 11.080977 27.431917 C 10.551908 27.737189 10.112941 28.176155 9.8076701 28.705225 C 8.4080724 30.844953 9.0079121 33.714538 11.14764 35.114136 C 12.687137 36.121126 14.676569 36.121126 16.216064 35.114136 C 16.722491 34.783593 17.178503 34.381979 17.570504 33.921444 C 19.122938 31.889875 18.734941 28.984353 16.703373 27.431917 C 15.873683 26.797822 14.882816 26.480554 13.892175 26.480554 z "/>
<metadata id="license" xmlns:rdf="http://www.w3.org/1999/02/22-rdf-syntax-ns#" xmlns:cc="http://creativecommons.org/ns#"><cc:Work><cc:license rdf:resource="https://creativecommons.org/publicdomain/zero/1.0/"/></cc:Work></metadata>
</svg>