<?xml version="1.0" encoding="UTF-8"?>
<svg version="1.1" id="postbox" width="150" height="150" viewBox="0 0 39.6875 39.6875" xmlns="http://www.w3.org/2000/svg">
<path d="M 0.31419271 0 C 0.14013046 0 -7.8332324e-17 0.14013046 0 0.31419271 L 0 26.144141 C 0 26.318201 0.14013046 26.458333 0.31419271 26.458333 L 14.552083 26.458333 L 14.552083 39.373307 C 14.552083 39.54737 14.692213 39.6875 14.866276 39.6875 L 24.821224 39.6875 C 24.995287 39.6875 25.135417 39.54737 25.135417 39.373307 L 25.135417 26.458333 L 39.373307 26.458333 C 39.54737 26.458333 39.6875 26.318201 39.6875 26.144141 L 39.6875 0.31419271 C 39.6875 0.14013046 39.54737 -7.8332324e-17 39.373307 0 L 0.31419271 0 z M 2.960026 3.96875 L 36.727474 3.96875 C 36.901537 3.96875 37.041667 4.1088805 37.041667 4.2829427 L 37.041667 7.6233073 C 37.041667 7.7973695 36.901537 7.9375 36.727474 7.9375 L 2.960026 7.9375 C 2.7859639 7.9375 2.6458333 7.7973695 2.6458333 7.6233073 L 2.6458333 4.2829427 C 2.6458333 4.1088805 2.7859639 3.96875 2.960026 3.96875 z M 11.556917 10.324951 L 27.545089 10.324951 C 28.082842 10.324951 28.518673 10.760856 28.518673 11.298535 C 28.518673 11.624042 28.356076 11.928261 28.085107 12.108822 L 19.550745 17.79788 L 11.016899 12.108822 C 10.746064 11.928261 10.583333 11.624042 10.583333 11.298535 C 10.583333 10.760856 11.019238 10.324951 11.556917 10.324951 z M 10.96884 14.385685 C 11.03494 14.387613 11.102099 14.407345 11.164176 14.44873 L 19.550745 20.04012 L 27.937313 14.44873 C 28.185714 14.28319 28.518673 14.461392 28.518673 14.759823 L 28.518673 22.281844 C 28.518673 23.107308 27.849138 23.776326 27.023674 23.776326 L 12.077816 23.776326 C 11.252383 23.776326 10.583333 23.107308 10.583333 22.281844 L 10.583333 14.759823 C 10.583333 14.536003 10.770538 14.379901 10.96884 14.385685 z "/>
<metadata id="license" xmlns:rdf="http://www.w3.org/1999/02/22-rdf-syntax-ns#" xmlns:cc="http://creativecommons.org/ns#"><cc:Work><cc:license rdf:resource="https://creativecommons.org/publicdomain/zero/1.0/"/></cc:Work></metadata>
</svg>