<?xml version="1.0" encoding="UTF-8"?>
<svg version="1.1" id="sports" width="150" height="150" viewBox="0 0 39.6875 39.6875" xmlns="http://www.w3.org/2000/svg">
<path d="M 12.564608,2.868817e-7 C 7.0853521,0.0019041 2.6446439,4.7408607 2.6458336,10.5854 c 0.00104,5.119193 3.4095949,13.448104 7.9375004,15.436267 v 12.342916 c 0,0.732895 0.590022,1.322917 1.322917,1.322917 h 1.322916 c 0.732895,0 1.322917,-0.590022 1.322917,-1.322917 V 26.022701 c 4.52878,-1.987512 7.9375,-10.319361 7.9375,-15.439368 v -0.0047 C 22.487205,4.7341432 18.043867,-0.00190351 12.564608,2.868817e-7 Z M 12.567192,2.6458336 a 1.9843752,1.984375 0 0 1 1.984892,1.9833415 v 0.00103 A 1.9843752,1.984375 0 0 1 12.567709,6.6145836 1.9843752,1.984375 0 0 1 10.583334,4.6307254 1.9843752,1.984375 0 0 1 12.567192,2.6458336 Z M 7.2755252,5.291667 a 1.984375,1.984375 0 0 1 1.9848914,1.9833414 v 0.00103 A 1.984375,1.984375 0 0 1 7.2760419,9.260417 1.984375,1.984375 0 0 1 5.2916669,7.2765587 1.984375,1.984375 0 0 1 7.2755252,5.291667 Z m 10.5833338,0 a 1.984375,1.984375 0 0 1 1.984892,1.9833414 v 0.00103 A 1.984375,1.984375 0 0 1 17.859376,9.260417 1.984375,1.984375 0 0 1 15.875001,7.2765587 1.984375,1.984375 0 0 1 17.858859,5.291667 Z m -5.291667,2.6458333 a 1.984375,1.984375 0 0 1 1.984892,1.9833415 v 0.00103 A 1.984375,1.984375 0 0 1 12.567709,11.90625 1.984375,1.984375 0 0 1 10.583334,9.9223921 1.984375,1.984375 0 0 1 12.567192,7.9375003 Z M 7.2755252,10.583333 a 1.984375,1.984375 0 0 1 1.9848914,1.983342 v 0.001 a 1.984375,1.984375 0 0 1 -1.9843747,1.984375 1.984375,1.984375 0 0 1 -1.984375,-1.983858 1.984375,1.984375 0 0 1 1.9838583,-1.984892 z m 10.5833338,0 a 1.984375,1.984375 0 0 1 1.984892,1.983342 v 0.001 a 1.984375,1.984375 0 0 1 -1.984375,1.984375 1.984375,1.984375 0 0 1 -1.984375,-1.983858 1.984375,1.984375 0 0 1 1.983858,-1.984892 z m -5.291667,2.645834 a 1.984375,1.984375 0 0 1 1.984892,1.983341 v 0.001 a 1.984375,1.984375 0 0 1 -1.984375,1.984375 1.984375,1.984375 0 0 1 -1.984375,-1.983859 1.984375,1.984375 0 0 1 1.983858,-1.984891 z M 7.2755252,15.875 a 1.984375,1.984375 0 0 1 1.9848914,1.983341 v 0.001 A 1.984375,1.984375 0 0 1 7.2760419,19.84375 1.984375,1.984375 0 0 1 5.2916669,17.859892 1.984375,1.984375 0 0 1 7.2755252,15.875 Z m 10.5833338,0 a 1.984375,1.984375 0 0 1 1.984892,1.983341 v 0.001 A 1.984375,1.984375 0 0 1 17.859376,19.84375 1.984375,1.984375 0 0 1 15.875001,17.859892 1.984375,1.984375 0 0 1 17.858859,15.875 Z m -5.291667,2.645833 a 1.984375,1.984375 0 0 1 1.984892,1.983342 v 0.001 a 1.984375,1.984375 0 0 1 -1.984375,1.984375 1.984375,1.984375 0 0 1 -1.984375,-1.983858 1.984375,1.984375 0 0 1 1.983858,-1.984892 z M 27.77815,19.84375 a 9.260417,9.260417 0 0 0 -9.257316,9.262484 9.260417,9.260417 0 0 0 9.26145,9.258349 9.260417,9.260417 0 0 0 9.259383,-9.260416 v -0.0041 A 9.260417,9.260417 0 0 0 27.77815,19.84375 Z m 0.664042,1.322917 a 1.984375,1.984375 0 0 1 1.984892,1.983341 v 0.001 a 1.984375,1.984375 0 0 1 -1.984375,1.984375 1.984375,1.984375 0 0 1 -1.984375,-1.983859 1.984375,1.984375 0 0 1 1.983858,-1.984891 z m 5.291667,3.96875 a 1.984375,1.984375 0 0 1 1.984892,1.983341 v 0.001 a 1.984375,1.984375 0 0 1 -1.984375,1.984375 1.984375,1.984375 0 0 1 -1.984375,-1.983859 1.984375,1.984375 0 0 1 1.983858,-1.984891 z m -5.291667,1.322916 a 1.984375,1.984375 0 0 1 1.984892,1.983342 v 0.001 a 1.984375,1.984375 0 0 1 -1.984375,1.984375 1.984375,1.984375 0 0 1 -1.984375,-1.983858 1.984375,1.984375 0 0 1 1.983858,-1.984892 z"/>
<metadata id="license" xmlns:rdf="http://www.w3.org/1999/02/22-rdf-syntax-ns#" xmlns:cc="http://creativecommons.org/ns#"><cc:Work><cc:license rdf:resource="https://creativecommons.org/publicdomain/zero/1.0/"/></cc:Work></metadata>
</svg>