<?xml version="1.0" encoding="UTF-8"?>
<svg version="1.1" id="stationery" width="150" height="150" viewBox="0 0 39.6875 39.6875" xmlns="http://www.w3.org/2000/svg">
<path d="m 27.542933,1.5904396 c -1.092781,-0.71527006 -4.348459,3.4205336 -5.790285,4.3503127 -1.441825,0.9297789 -0.668759,2.953983 0.423835,3.669538 1.092596,0.7155547 2.960202,-0.548805 3.533182,-1.0781824 l 6.07e-4,-9.296e-4 c 1.407226,-1.1123105 2.925443,-6.2254707 1.832661,-6.9407416 z m 3.508623,2.8732347 c -0.07002,-0.028844 -0.205514,0.026384 -0.248425,0.091272 L 13.876313,30.150055 c -0.05721,0.08652 0.122787,0.161871 0.08343,0.279955 l -2.583062,7.749715 6.147596,-5.37925 c 0.103643,0.06891 0.233304,0.05507 0.29052,-0.03145 L 34.741613,7.1739197 c 0.05721,-0.086518 0.02042,-0.2113398 -0.08323,-0.2802639 l -3.56453,-2.3704659 c -0.0029,-0.030977 -0.01896,-0.0499 -0.0423,-0.059516 z M 19.679474,9.1054233 4.9189528,33.363489 7.2929198,34.918674 23.636085,11.697397 Z"/>
<metadata id="license" xmlns:rdf="http://www.w3.org/1999/02/22-rdf-syntax-ns#" xmlns:cc="http://creativecommons.org/ns#"><cc:Work><cc:license rdf:resource="https://creativecommons.org/publicdomain/zero/1.0/"/></cc:Work></metadata>
</svg>