<?xml version="1.0" encoding="UTF-8"?>
<svg version="1.1" id="wastewater" width="150" height="150" viewBox="0 0 39.6875 39.6875" xmlns="http://www.w3.org/2000/svg">
<path d="m 18.92391,4.255554 c -3.66418,0 -6.107121,2.4429432 -6.107121,6.107121 v 6.107121 h 4.88549 V 12.80542 c 0,-2.442784 1.22159,-3.6638594 3.664375,-3.6638594 H 39.6875 V 4.255554 Z M 15.259534,17.69091 c -1.34901,4.39e-4 -2.443039,3.536998 -2.442745,4.886007 2.93e-4,1.34901 1.094252,2.442891 2.443261,2.442745 1.349009,-1.48e-4 2.442229,-1.093737 2.442229,-2.442745 v -0.001 C 17.701693,21.226874 16.608543,17.690471 15.259534,17.69091 Z M 4.9609378,27.494446 c -1.9843654,0 -1.7122133,3.99611 -4.96093745,3.96875 v 3.96875 c 3.96873015,0 2.97657205,-2.976562 4.96093745,-2.976562 1.9843649,0 0.9922073,2.976562 4.9609379,2.976562 3.9687293,0 2.9765693,-2.976562 4.9609363,-2.976562 1.984367,0 0.992207,2.976562 4.960938,2.976562 3.96873,0 2.976572,-2.976562 4.960938,-2.976562 1.984365,0 0.992207,2.976562 4.960937,2.976562 3.96873,0 2.976571,-2.976562 4.960937,-2.976562 1.984368,0 0.992207,2.976562 4.960938,2.976562 v -3.96875 c -2.976546,0 -2.97657,-3.96875 -4.960938,-3.96875 -1.984366,0 -1.712212,3.99611 -4.960937,3.96875 -2.976548,0 -2.976572,-3.96875 -4.960937,-3.96875 -1.984366,0 -1.712214,3.99611 -4.960938,3.96875 -2.976546,0 -2.976571,-3.96875 -4.960938,-3.96875 -1.984367,0 -1.712212,3.99611 -4.9609363,3.96875 -2.976548,0 -2.976573,-3.96875 -4.9609379,-3.96875 z"/>
<metadata id="license" xmlns:rdf="http://www.w3.org/1999/02/22-rdf-syntax-ns#" xmlns:cc="http://creativecommons.org/ns#"><cc:Work><cc:license rdf:resource="https://creativecommons.org/publicdomain/zero/1.0/"/></cc:Work></metadata>
</svg>