<?xml version="1.0" encoding="UTF-8"?>
<svg version="1.1" id="waterworks" width="150" height="150" viewBox="0 0 39.6875 39.6875" xmlns="http://www.w3.org/2000/svg">
<path d="M 21.166667 2.6458333 L 21.166667 3.96875 L 13.229167 3.96875 L 13.229167 6.6145833 L 19.84375 6.6145833 L 19.84375 9.8174886 A 6.6145835 6.614583 0 0 0 16.432072 13.229167 L 11.90625 13.229167 C 7.9375042 13.229167 5.2916667 15.875005 5.2916667 19.84375 L 5.2916667 26.458333 L 10.583333 26.458333 L 10.583333 22.489583 C 10.583333 19.843753 11.906253 18.520833 14.552083 18.520833 L 16.432589 18.520833 A 6.6145835 6.614583 0 0 0 22.4901 22.489583 A 6.6145835 6.614583 0 0 0 28.547095 18.520833 L 34.395833 18.520833 L 34.395833 13.229167 L 28.546578 13.229167 A 6.6145835 6.614583 0 0 0 25.135417 9.8174886 L 25.135417 6.6145833 L 31.75 6.6145833 L 31.75 3.96875 L 23.8125 3.96875 L 23.8125 2.6458333 L 21.166667 2.6458333 z M 7.9375 27.78125 C 6.4763603 27.781726 5.2913492 31.612294 5.2916667 33.073433 C 5.2919844 34.534573 6.4768773 35.718908 7.9380168 35.71875 C 9.3991563 35.71859 10.583333 34.534056 10.583333 33.072917 L 10.583333 33.071883 C 10.582698 31.610743 9.3986395 27.780774 7.9375 27.78125 z "/>
<metadata id="license" xmlns:rdf="http://www.w3.org/1999/02/22-rdf-syntax-ns#" xmlns:cc="http://creativecommons.org/ns#"><cc:Work><cc:license rdf:resource="https://creativecommons.org/publicdomain/zero/1.0/"/></cc:Work></metadata>
</svg>