<?xml version="1.0" encoding="UTF-8"?>
<svg version="1.1" id="circle-outline" width="110" height="110" viewBox="0 0 29.1042 29.104172" xmlns="http://www.w3.org/2000/svg">
<path d="M 14.552098,1.2626262e-7 A 14.552077,14.552081 0 0 0 -1.9434237e-6,14.55208 14.552077,14.552081 0 0 0 14.552098,29.10416 14.552077,14.552081 0 0 0 29.104198,14.55208 14.552077,14.552081 0 0 0 14.552098,1.2626262e-7 Z m 0,2.64582997373738 A 11.906254,11.906257 0 0 1 26.458398,14.55208 11.906254,11.906257 0 0 1 14.552098,26.45833 11.906254,11.906257 0 0 1 2.6458981,14.55208 11.906254,11.906257 0 0 1 14.552098,2.6458301 Z"/>
<metadata id="license" xmlns:rdf="http://www.w3.org/1999/02/22-rdf-syntax-ns#" xmlns:cc="http://creativecommons.org/ns#"><cc:Work><cc:license rdf:resource="https://creativecommons.org/publicdomain/zero/1.0/"/></cc:Work></metadata>
</svg>